<svg width="19" height="20" viewBox="0 0 19 20" fill="none" xmlns="http://www.w3.org/2000/svg">
    <defs>
        <clipPath id="clip0_1919_24193">
            <rect width="18.6731" height="18.6731" fill="white" transform="translate(0 0.893311)"/>
        </clipPath>
    </defs>
<g clip-path="url(#clip0_1919_24193)">
<path d="M8.39675 2.78394H10.2728C12.3312 2.78394 14.3052 3.60162 15.7607 5.05709C17.2162 6.51256 18.0338 8.48661 18.0338 10.545V10.545C18.0338 10.6997 17.9724 10.8482 17.8629 10.9576C17.7535 11.067 17.6051 11.1285 17.4503 11.1285H1.21342C1.05866 11.1285 0.910231 11.067 0.800796 10.9576C0.691362 10.8482 0.629883 10.6997 0.629883 10.545C0.629883 9.52528 0.830821 8.51559 1.22121 7.5736C1.61161 6.63161 2.1838 5.77578 2.9051 5.05503C3.62639 4.33427 4.48265 3.76272 5.42494 3.37304C6.36722 2.98335 7.37706 2.78317 8.39675 2.78394V2.78394Z" stroke="white" stroke-width="1.15068" stroke-linecap="round" stroke-linejoin="round"/>
<path d="M17.1941 11.1196H1.47949V13.1999H17.1941V11.1196Z" fill="black" stroke="white" stroke-width="1.15068" stroke-linecap="round" stroke-linejoin="round"/>
<path d="M1.19887 13.2002H17.4737C17.5472 13.2002 17.6201 13.2147 17.6881 13.2428C17.756 13.271 17.8178 13.3123 17.8698 13.3643C17.9218 13.4163 17.9631 13.478 17.9912 13.546C18.0194 13.614 18.0339 13.6868 18.0339 13.7604V13.7604C18.0339 14.7983 17.6218 15.7938 16.8881 16.5281C16.1544 17.2623 15.1592 17.6751 14.1213 17.6759H4.5542C3.51574 17.6759 2.51981 17.2634 1.7855 16.5291C1.0512 15.7948 0.638672 14.7989 0.638672 13.7604V13.7604C0.638672 13.6868 0.653162 13.614 0.681314 13.546C0.709467 13.478 0.75073 13.4163 0.802749 13.3643C0.854768 13.3123 0.916523 13.271 0.984489 13.2428C1.05246 13.2147 1.1253 13.2002 1.19887 13.2002V13.2002Z" stroke="white" stroke-width="1.15068" stroke-linecap="round" stroke-linejoin="round"/>
<path d="M10.6993 15.0733L8.09961 13.2002H15.6856L13.0888 15.0733C12.741 15.3243 12.323 15.4593 11.8941 15.4593C11.4651 15.4593 11.0471 15.3243 10.6993 15.0733V15.0733Z" fill="black" stroke="white" stroke-width="1.15068" stroke-linecap="round" stroke-linejoin="round"/>
</g>

</svg>
