<svg width="24" height="23" viewBox="0 0 24 23" fill="none" xmlns="http://www.w3.org/2000/svg">
<path d="M20.4153 19.3356C20.0877 20.6794 18.8838 21.625 17.5007 21.625H6.49931C5.11617 21.625 3.91231 20.6794 3.58468 19.3356L1.22963 9.67623C1.08035 9.06392 1.12769 8.42014 1.36495 7.83625L3.38273 2.87063C3.84228 1.73969 4.94129 1 6.16203 1H17.838C19.0587 1 20.1577 1.7397 20.6173 2.87063L22.635 7.83625C22.8723 8.42014 22.9197 9.06392 22.7704 9.67623L20.4153 19.3356Z" fill="white" stroke="#FAFAFA" stroke-width="1.5"/>
<path d="M1 8.09009L3.06606 10.027C3.45072 10.3876 4.04928 10.3876 4.43394 10.027L5.81606 8.73128C6.20072 8.37067 6.79928 8.37067 7.18394 8.73128L8.56606 10.027C8.95072 10.3876 9.54928 10.3876 9.93394 10.027L11.3161 8.73128C11.7007 8.37067 12.2993 8.37067 12.6839 8.73128L14.0661 10.027C14.4507 10.3876 15.0493 10.3876 15.4339 10.027L16.8161 8.73128C17.2007 8.37067 17.7993 8.37067 18.1839 8.73128L19.5661 10.027C19.9507 10.3876 20.5493 10.3876 20.9339 10.027L23 8.09009" stroke="url(#paint0_linear_594_10686)" stroke-width="1.5"/>
<path d="M9.66211 17.9299C9.66211 16.4111 10.8933 15.1799 12.4121 15.1799V15.1799C13.9309 15.1799 15.1621 16.4111 15.1621 17.9299V21.6252H9.66211V17.9299Z" stroke="url(#paint1_linear_594_10686)" stroke-width="1.5"/>
<defs>
<linearGradient id="paint0_linear_594_10686" x1="1" y1="9.31023" x2="23" y2="9.31023" gradientUnits="userSpaceOnUse">
<stop stop-color="#050505"/>
<stop offset="1" stop-color="#00020D"/>
</linearGradient>
<linearGradient id="paint1_linear_594_10686" x1="9.66211" y1="18.2303" x2="15.1621" y2="18.2303" gradientUnits="userSpaceOnUse">
<stop stop-color="#050505"/>
<stop offset="1" stop-color="#00020D"/>
</linearGradient>
</defs>
</svg>
