<svg width="18" height="17" viewBox="0 0 18 17" fill="none" xmlns="http://www.w3.org/2000/svg">
<path d="M15.0306 14.2501C14.7939 15.2212 13.9239 15.9045 12.9244 15.9045H4.97426C3.97475 15.9045 3.10478 15.2212 2.86802 14.2501L1.16615 7.2698C1.05827 6.82731 1.09248 6.36209 1.26394 5.94014L2.72208 2.35176C3.05417 1.53449 3.84837 0.999951 4.73053 0.999951H13.1681C14.0503 0.999951 14.8445 1.53449 15.1766 2.35176L16.6347 5.94014C16.8062 6.36209 16.8404 6.82731 16.7325 7.2698L15.0306 14.2501Z" stroke="#FAFAFA" stroke-width="1.08397"/>
<path d="M1 6.12378L2.49303 7.5235C2.771 7.78409 3.20355 7.78409 3.48153 7.5235L4.48031 6.58714C4.75828 6.32654 5.19083 6.32654 5.46881 6.58714L6.46759 7.5235C6.74556 7.78409 7.17811 7.78409 7.45608 7.5235L8.45487 6.58714C8.73284 6.32654 9.16539 6.32654 9.44336 6.58714L10.4421 7.5235C10.7201 7.78409 11.1527 7.78409 11.4306 7.5235L12.4294 6.58714C12.7074 6.32654 13.1399 6.32654 13.4179 6.58714L14.4167 7.5235C14.6947 7.78409 15.1272 7.78409 15.4052 7.5235L16.8982 6.12378" stroke="#FAFAFA" stroke-width="1.08397"/>
<path d="M7.25977 13.2343C7.25977 12.1368 8.1495 11.2471 9.24704 11.2471V11.2471C10.3446 11.2471 11.2343 12.1368 11.2343 13.2343V15.9048H7.25977V13.2343Z" stroke="#FAFAFA" stroke-width="1.08397"/>
</svg>
