<svg width="33" height="49" viewBox="0 0 33 49" fill="none" xmlns="http://www.w3.org/2000/svg">
<g filter="url(#filter0_d_945_16453)">
<path d="M8.98828 38.125C8.98828 38.5482 8.88086 38.9079 8.66602 39.2041C8.45443 39.4971 8.16146 39.7201 7.78711 39.873C7.41602 40.0228 6.98307 40.0977 6.48828 40.0977C6.21159 40.0977 5.9528 40.0846 5.71191 40.0586C5.47428 40.0326 5.25618 39.9951 5.05762 39.9463C4.8623 39.8975 4.68652 39.8405 4.53027 39.7754V39.0918C4.78092 39.1927 5.07715 39.2839 5.41895 39.3652C5.764 39.4466 6.13021 39.4873 6.51758 39.4873C6.88216 39.4873 7.19629 39.4368 7.45996 39.3359C7.72363 39.235 7.92708 39.0869 8.07031 38.8916C8.21354 38.6963 8.28516 38.457 8.28516 38.1738C8.28516 37.9102 8.22493 37.6921 8.10449 37.5195C7.98405 37.3438 7.79362 37.1891 7.5332 37.0557C7.27604 36.9189 6.93424 36.7773 6.50781 36.6309C6.20833 36.5267 5.94141 36.4144 5.70703 36.2939C5.47266 36.1702 5.27409 36.0303 5.11133 35.874C4.95182 35.7145 4.82975 35.529 4.74512 35.3174C4.66374 35.1025 4.62305 34.8551 4.62305 34.5752C4.62305 34.1911 4.7207 33.8639 4.91602 33.5938C5.11133 33.3203 5.37988 33.1136 5.72168 32.9736C6.06673 32.8304 6.45898 32.7588 6.89844 32.7588C7.26302 32.7588 7.60482 32.793 7.92383 32.8613C8.24284 32.9297 8.54069 33.0257 8.81738 33.1494L8.58789 33.7549C8.32096 33.641 8.04264 33.5514 7.75293 33.4863C7.46647 33.418 7.17513 33.3838 6.87891 33.3838C6.56315 33.3838 6.28971 33.431 6.05859 33.5254C5.82747 33.6165 5.64844 33.7516 5.52148 33.9307C5.39453 34.1064 5.33105 34.3213 5.33105 34.5752C5.33105 34.8486 5.39128 35.0749 5.51172 35.2539C5.63216 35.4297 5.81445 35.5811 6.05859 35.708C6.30273 35.835 6.61198 35.9652 6.98633 36.0986C7.40625 36.2484 7.76432 36.4062 8.06055 36.5723C8.36003 36.7383 8.58952 36.9434 8.74902 37.1875C8.90853 37.4316 8.98828 37.7441 8.98828 38.125ZM11.9668 39.5264C12.1068 39.5264 12.2451 39.515 12.3818 39.4922C12.5186 39.4694 12.6341 39.4417 12.7285 39.4092V39.9512C12.6276 39.9902 12.499 40.0244 12.3428 40.0537C12.1865 40.083 12.027 40.0977 11.8643 40.0977C11.5745 40.0977 11.3206 40.0456 11.1025 39.9414C10.8844 39.8372 10.7135 39.668 10.5898 39.4336C10.4661 39.1992 10.4043 38.8851 10.4043 38.4912V35.2148H9.62793V34.8584L10.4043 34.6045L10.668 33.4082H11.0928V34.668H12.6943V35.2148H11.0928V38.4619C11.0928 38.8167 11.1676 39.0837 11.3174 39.2627C11.4671 39.4385 11.6836 39.5264 11.9668 39.5264ZM15.7705 34.5752C16.389 34.5752 16.848 34.7201 17.1475 35.0098C17.4502 35.2995 17.6016 35.7601 17.6016 36.3916V40H17.0938L16.9619 39.1553H16.9277C16.791 39.3506 16.6413 39.5199 16.4785 39.6631C16.3158 39.8031 16.1237 39.9105 15.9023 39.9854C15.681 40.0602 15.4092 40.0977 15.0869 40.0977C14.7549 40.0977 14.4652 40.0407 14.2178 39.9268C13.9704 39.8128 13.7767 39.6436 13.6367 39.4189C13.4967 39.1911 13.4268 38.9079 13.4268 38.5693C13.4268 38.0387 13.64 37.6335 14.0664 37.3535C14.4961 37.0703 15.1341 36.9141 15.9805 36.8848L16.9277 36.8408V36.4893C16.9277 35.9945 16.8252 35.6462 16.6201 35.4443C16.415 35.2393 16.1204 35.1367 15.7363 35.1367C15.4596 35.1367 15.1943 35.1758 14.9404 35.2539C14.6865 35.332 14.4391 35.4297 14.1982 35.5469L13.9883 35.0098C14.2324 34.8893 14.5059 34.7868 14.8086 34.7021C15.1146 34.6175 15.4352 34.5752 15.7705 34.5752ZM16.9229 37.3389L16.0635 37.373C15.3929 37.4023 14.9046 37.5163 14.5986 37.7148C14.2959 37.9134 14.1445 38.2015 14.1445 38.5791C14.1445 38.8949 14.2422 39.1325 14.4375 39.292C14.6328 39.4515 14.8965 39.5312 15.2285 39.5312C15.7461 39.5312 16.1562 39.3864 16.459 39.0967C16.765 38.807 16.9196 38.3887 16.9229 37.8418V37.3389ZM19.9795 40H19.2861V32.4023H19.9795V40ZM22.4014 40H21.708V32.4023H22.4014V40ZM27.5381 38.5645C27.5381 38.8965 27.4551 39.1764 27.2891 39.4043C27.123 39.6322 26.8838 39.8047 26.5713 39.9219C26.2588 40.0391 25.8828 40.0977 25.4434 40.0977C25.0723 40.0977 24.7467 40.0667 24.4668 40.0049C24.1868 39.943 23.946 39.8617 23.7441 39.7607V39.1162C23.972 39.2269 24.2357 39.3245 24.5352 39.4092C24.8346 39.4906 25.1423 39.5312 25.458 39.5312C25.9528 39.5312 26.3109 39.4499 26.5322 39.2871C26.7536 39.1243 26.8643 38.9014 26.8643 38.6182C26.8643 38.4456 26.8154 38.2992 26.7178 38.1787C26.6201 38.055 26.4688 37.9411 26.2637 37.8369C26.0586 37.7327 25.79 37.6221 25.458 37.5049C25.1227 37.3812 24.8298 37.2591 24.5791 37.1387C24.3285 37.0182 24.1331 36.8669 23.9932 36.6846C23.8564 36.499 23.7881 36.2549 23.7881 35.9521C23.7881 35.5094 23.9655 35.1676 24.3203 34.9268C24.6784 34.6859 25.152 34.5654 25.7412 34.5654C26.0635 34.5654 26.363 34.5964 26.6396 34.6582C26.9196 34.7201 27.1784 34.8031 27.416 34.9072L27.1816 35.4639C26.9668 35.3695 26.7308 35.2913 26.4736 35.2295C26.2197 35.1676 25.9609 35.1367 25.6973 35.1367C25.3001 35.1367 24.9925 35.2051 24.7744 35.3418C24.5596 35.4753 24.4521 35.6657 24.4521 35.9131C24.4521 36.1019 24.5026 36.2549 24.6035 36.3721C24.7077 36.486 24.8639 36.5885 25.0723 36.6797C25.2839 36.7708 25.5508 36.8766 25.873 36.9971C26.1986 37.1143 26.4867 37.2363 26.7373 37.3633C26.988 37.487 27.1833 37.6432 27.3232 37.832C27.4665 38.0176 27.5381 38.2617 27.5381 38.5645Z" fill="#FAFAFA"/>
<path d="M25.4153 19.3356C25.0877 20.6794 23.8838 21.625 22.5007 21.625H11.4993C10.1162 21.625 8.91231 20.6794 8.58468 19.3356L6.22963 9.67623C6.08035 9.06392 6.12769 8.42014 6.36495 7.83625L8.38273 2.87063C8.84228 1.73969 9.94129 1 11.162 1H22.838C24.0587 1 25.1577 1.7397 25.6173 2.87063L27.635 7.83625C27.8723 8.42014 27.9197 9.06391 27.7704 9.67623L25.4153 19.3356Z" fill="white" stroke="#FAFAFA" stroke-width="1.5"/>
<path d="M6 8.09009L8.06606 10.027C8.45072 10.3876 9.04928 10.3876 9.43394 10.027L10.8161 8.73128C11.2007 8.37067 11.7993 8.37067 12.1839 8.73128L13.5661 10.027C13.9507 10.3876 14.5493 10.3876 14.9339 10.027L16.3161 8.73128C16.7007 8.37067 17.2993 8.37067 17.6839 8.73128L19.0661 10.027C19.4507 10.3876 20.0493 10.3876 20.4339 10.027L21.8161 8.73128C22.2007 8.37067 22.7993 8.37067 23.1839 8.73128L24.5661 10.027C24.9507 10.3876 25.5493 10.3876 25.9339 10.027L28 8.09009" stroke="url(#paint0_linear_945_16453)" stroke-width="1.5"/>
<path d="M14.6621 17.9299C14.6621 16.4111 15.8933 15.1799 17.4121 15.1799V15.1799C18.9309 15.1799 20.1621 16.4111 20.1621 17.9299V21.6252H14.6621V17.9299Z" stroke="url(#paint1_linear_945_16453)" stroke-width="1.5"/>
</g>
<defs>
<filter id="filter0_d_945_16453" x="0.530273" y="0.25" width="32.0757" height="47.8477" filterUnits="userSpaceOnUse" color-interpolation-filters="sRGB">
<feFlood flood-opacity="0" result="BackgroundImageFix"/>
<feColorMatrix in="SourceAlpha" type="matrix" values="0 0 0 0 0 0 0 0 0 0 0 0 0 0 0 0 0 0 127 0" result="hardAlpha"/>
<feOffset dy="4"/>
<feGaussianBlur stdDeviation="2"/>
<feComposite in2="hardAlpha" operator="out"/>
<feColorMatrix type="matrix" values="0 0 0 0 0 0 0 0 0 0 0 0 0 0 0 0 0 0 0.25 0"/>
<feBlend mode="normal" in2="BackgroundImageFix" result="effect1_dropShadow_945_16453"/>
<feBlend mode="normal" in="SourceGraphic" in2="effect1_dropShadow_945_16453" result="shape"/>
</filter>
<linearGradient id="paint0_linear_945_16453" x1="6" y1="9.31023" x2="28" y2="9.31023" gradientUnits="userSpaceOnUse">
<stop stop-color="#050505"/>
<stop offset="1" stop-color="#00020D"/>
</linearGradient>
<linearGradient id="paint1_linear_945_16453" x1="14.6621" y1="18.2303" x2="20.1621" y2="18.2303" gradientUnits="userSpaceOnUse">
<stop stop-color="#050505"/>
<stop offset="1" stop-color="#00020D"/>
</linearGradient>
</defs>
</svg>
