<svg width="388" height="545" viewBox="0 0 388 545" fill="none" xmlns="http://www.w3.org/2000/svg">
    <defs>
        <filter id="filter0_bi_1095_17691" x="-50" y="-50" width="488" height="645" filterUnits="userSpaceOnUse" color-interpolation-filters="sRGB">
            <feFlood flood-opacity="0" result="BackgroundImageFix"/>
            <feGaussianBlur in="BackgroundImageFix" stdDeviation="25"/>
            <feComposite in2="SourceAlpha" operator="in" result="effect1_backgroundBlur_1095_17691"/>
            <feBlend mode="normal" in="SourceGraphic" in2="effect1_backgroundBlur_1095_17691" result="shape"/>
            <feColorMatrix in="SourceAlpha" type="matrix" values="0 0 0 0 0 0 0 0 0 0 0 0 0 0 0 0 0 0 127 0" result="hardAlpha"/>
            <feOffset dx="4" dy="-4"/>
            <feGaussianBlur stdDeviation="4.5"/>
            <feComposite in2="hardAlpha" operator="arithmetic" k2="-1" k3="1"/>
            <feColorMatrix type="matrix" values="0 0 0 0 1 0 0 0 0 0.796 0 0 0 0 0.4 0 0 0 0.03 0"/>
            <feBlend mode="normal" in2="shape" result="effect2_innerShadow_1095_17691"/>
        </filter>
        <radialGradient id="paint0_radial_1095_17691" cx="0" cy="0" r="1" gradientUnits="userSpaceOnUse" gradientTransform="translate(388 613.006) rotate(-118.428) scale(815.036 1152.31)">
            <stop stop-color="#FFD000"/>
            <stop offset="1" stop-color="#363636" stop-opacity="0"/>
        </radialGradient>
        <radialGradient id="paint1_radial_1095_17691" cx="0" cy="0" r="1" gradientUnits="userSpaceOnUse" gradientTransform="translate(10 311.972) rotate(-90.9453) scale(606.108 683.558)">
            <stop stop-color="#FFA800"/>
            <stop offset="1" stop-color="#FFA800" stop-opacity="0"/>
        </radialGradient>
    </defs>
    <g filter="url(#filter0_bi_1095_17691)">
<path d="M0 20C0 8.95432 8.9543 0 20 0H368C379.046 0 388 8.9543 388 20V525C388 536.046 379.046 545 368 545H20C8.95431 545 0 536.046 0 525V20Z" fill="url(#paint0_radial_1095_17691)" fill-opacity="0.22"/>
<path d="M0 20C0 8.95432 8.9543 0 20 0H368C379.046 0 388 8.9543 388 20V525C388 536.046 379.046 545 368 545H20C8.95431 545 0 536.046 0 525V20Z" fill="url(#paint1_radial_1095_17691)" fill-opacity="0.13"/>
</g>
</svg>
