<svg width="226" height="253" viewBox="0 0 226 253" fill="none" xmlns="http://www.w3.org/2000/svg">
    <defs>
        <linearGradient id="paint0_linear_266_9123" x1="51" y1="0" x2="184.57" y2="9.09154" gradientUnits="userSpaceOnUse">
            <stop stop-color="#D19A08"/>
            <stop offset="0.276042" stop-color="#FEDB7E"/>
            <stop offset="0.5" stop-color="#EAC460"/>
            <stop offset="0.739583" stop-color="#D19A08"/>
            <stop offset="1" stop-color="#D19A08"/>
        </linearGradient>
    </defs>
    <path fill-rule="evenodd" clip-rule="evenodd" d="M107.166 92.1918C110.707 100.056 116.085 106.96 122.849 112.327C119.913 106.485 118.212 100.103 117.852 93.5779C117.592 88.5616 117.052 77.9412 123.541 69.5538C125.178 67.4504 126.269 66.7612 130.26 64.2402L130.26 64.2401C132.205 63.0116 134.838 61.3481 138.559 58.8739C148.78 52.0831 153.891 48.6849 156.238 46.2037C157.314 45.0656 171.364 29.8118 166.454 15.9064C164.631 10.7499 160.635 6.99582 159.618 6.0573C156.61 3.29395 153.028 1.22581 149.127 0C151.771 2.66457 156.411 8.2472 156.098 15.216C155.546 27.4547 140.036 35.2434 137.283 36.6243C133.16 38.7 129.893 39.4937 126.87 40.2282C122.823 41.2115 119.213 42.0888 114.569 45.7937C111.079 48.5614 108.163 51.9822 105.987 55.8641C97.837 70.9237 105.392 88.1841 107.166 92.1918ZM53.6698 84.2355C48.1265 93.1515 52.8207 104.349 53.5346 105.994C53.5995 104.543 54.1457 95.8592 61.241 90.4222L61.2608 90.4072C62.5882 89.4031 67.4807 85.7022 73.6794 86.7004C78.7846 87.5257 81.8725 91.0748 84.0358 93.5884C90.1198 100.719 96.777 115.288 89.9846 125.261C87.3239 129.172 81.6995 133.719 75.2099 133.249C73.2738 133.099 71.3918 132.54 69.6883 131.61C71.2404 133.622 74.5231 137.246 79.7689 138.767C81.3967 139.242 84.3819 139.852 91.9206 138.492C96.868 137.602 99.291 136.671 101.334 135.886C102.969 135.257 104.361 134.722 106.609 134.377C116.992 132.775 126.254 138.172 133.81 142.576L133.892 142.624C138.05 145.055 141.938 147.917 145.493 151.162C144.95 146.072 143.318 141.157 140.706 136.75C137.357 131.227 133.565 128.684 128.485 125.277L128.485 125.277C125.33 123.161 121.679 120.712 117.328 117.009C109.578 110.433 104.035 105.552 100.482 97.7309C95.1061 85.8807 98.2156 73.6581 99.9407 66.8835C101.259 61.7462 103.749 54.7604 106.198 47.8872L106.198 47.8872L106.198 47.8871C108.77 40.6667 111.299 33.5707 112.379 28.8729C112.893 26.7997 112.987 24.645 112.655 22.5352C112.179 19.8216 111.036 17.268 109.329 15.1025C108.437 22.7833 106.355 34.3208 101.044 46.0847C100.309 47.7084 95.8361 57.4551 89.4005 63.2373C87.7454 64.6917 86.0045 66.0462 84.1872 67.2934C81.8495 68.9121 79.3568 70.2961 76.7457 71.425C74.6404 72.3222 72.9181 72.7277 71.484 73.0653C70.5384 73.2878 69.7182 73.4809 68.9962 73.766C63.8477 75.8103 57.2823 78.421 53.6698 84.2355ZM75.7611 64.4024C80.7936 64.4024 84.8735 60.3332 84.8735 55.3138C84.8735 50.2943 80.7936 46.2251 75.7611 46.2251C70.7283 46.2251 66.6484 50.2943 66.6484 55.3138C66.6484 60.3332 70.7283 64.4024 75.7611 64.4024ZM122.849 97.7313C120.642 79.1818 136.564 65.0392 138.727 63.1621C137.234 65.2442 128.76 77.4558 132.664 91.6686C133.748 95.5786 135.619 99.2274 138.164 102.392C137.542 97.3617 138.875 92.2851 141.891 88.2057C144.553 84.7525 148.294 82.2846 152.523 81.1938C147.63 91.0474 145.62 102.077 146.725 113.018C147.607 121.239 150.248 129.176 154.47 136.292C146.383 132.259 139.269 126.527 133.616 119.49C129.679 114.555 124.006 107.44 122.849 97.7313ZM113.596 12.0713C115.307 14.7326 116.392 17.7457 116.77 20.8848C116.867 21.7533 117.062 23.9917 115.532 31.9046C114.866 35.3243 114.212 38.1183 113.736 40.0276C115.332 38.3234 117.151 36.841 119.144 35.6209C123.266 33.0805 126.975 32.4245 130.237 31.8477C131.13 31.6897 131.99 31.5376 132.816 31.3544C137.018 30.4212 142.848 28.118 149.386 21.9852C147.134 22.7281 144.824 23.282 142.48 23.6411C139.506 24.0774 136.511 24.3528 133.508 24.4664C133.248 24.4737 132.998 24.4793 132.757 24.4848L132.756 24.4848C130.851 24.5279 129.457 24.5593 127.705 25.2917C126.536 25.7937 125.462 26.4925 124.531 27.3574C124.917 25.0414 124.68 22.6642 123.844 20.4695C121.307 14.0454 114.401 12.2655 113.596 12.0713ZM141.625 62.6389C140.415 64.9629 139.889 67.5806 140.105 70.1902C142.426 66.3229 144.989 64.4403 146.903 63.4371C148.352 62.6711 149.53 62.3545 151.052 61.9455C152.167 61.6461 153.465 61.2973 155.188 60.6863C157.717 59.7933 160.165 58.6873 162.505 57.3798C161.234 60.7186 158.915 65.0445 154.502 67.2937C153.042 68.0386 152.12 68.1656 151.021 68.3169C150.21 68.4286 149.302 68.5535 148.012 68.9496C141.019 71.091 133.313 77.9575 133.513 85.4765C133.606 87.7379 134.325 89.9296 135.59 91.8089C135.802 89.672 136.363 87.5843 137.25 85.6275C137.839 84.3168 140.792 77.8172 146.492 76.3824C147.465 76.1359 148.047 76.1597 148.721 76.1872C149.433 76.2163 150.248 76.2496 151.738 75.9725C154.194 75.4954 156.537 74.5602 158.644 73.2163C158.638 73.2863 158.631 73.3637 158.624 73.448C158.573 74.0188 158.496 74.9056 158.368 75.9725C157.827 80.4871 156.892 84.6566 153.604 97.1433C153.069 98.9241 152.706 100.752 152.522 102.602C152.432 105.118 152.579 107.637 152.96 110.126C153.89 115.596 158.655 125.003 165.523 125.413C169.054 125.623 173.354 123.465 174.225 120.315C174.673 118.692 174.078 117.252 173.392 115.634C171.288 110.596 167.01 107.958 165.112 106.82C162.433 105.228 159.478 104.153 156.4 103.654C162.568 77.2167 168.735 50.7831 174.901 24.3533L172.829 22.5625C167.502 43.6093 161.781 50.1791 157.227 51.8996C154.337 53.0045 151.562 54.3883 148.942 56.0314C143.448 59.4565 142.036 61.8837 141.625 62.6389Z" fill="url(#paint0_linear_266_9123)"/>
<path d="M15.0117 238.842C15.0117 239.942 14.8717 240.945 14.5918 241.85C14.3184 242.748 13.9049 243.523 13.3516 244.174C12.7982 244.818 12.1048 245.316 11.2715 245.668C10.4382 246.02 9.46159 246.195 8.3418 246.195C7.20247 246.195 6.21289 246.02 5.37305 245.668C4.53971 245.316 3.84635 244.815 3.29297 244.164C2.74609 243.513 2.33594 242.735 2.0625 241.83C1.78906 240.925 1.65234 239.923 1.65234 238.822C1.65234 237.351 1.89323 236.068 2.375 234.975C2.86328 233.874 3.60221 233.021 4.5918 232.416C5.58789 231.804 6.8444 231.498 8.36133 231.498C9.8457 231.498 11.0794 231.801 12.0625 232.406C13.0456 233.012 13.7812 233.865 14.2695 234.965C14.7643 236.059 15.0117 237.351 15.0117 238.842ZM4.11328 238.842C4.11328 239.942 4.26302 240.896 4.5625 241.703C4.86198 242.504 5.32096 243.122 5.93945 243.559C6.56445 243.988 7.36523 244.203 8.3418 244.203C9.32487 244.203 10.1257 243.988 10.7441 243.559C11.3626 243.122 11.8184 242.504 12.1113 241.703C12.4043 240.896 12.5508 239.942 12.5508 238.842C12.5508 237.169 12.2155 235.86 11.5449 234.916C10.8809 233.965 9.81966 233.49 8.36133 233.49C7.38477 233.49 6.58073 233.705 5.94922 234.135C5.32422 234.564 4.86198 235.18 4.5625 235.98C4.26302 236.775 4.11328 237.729 4.11328 238.842ZM23.2441 236.938H20.6172V246H18.3223V236.938H16.5547V235.834L18.3223 235.16V234.408C18.3223 233.49 18.4655 232.761 18.752 232.221C19.0449 231.68 19.4616 231.293 20.002 231.059C20.5488 230.818 21.1999 230.697 21.9551 230.697C22.4499 230.697 22.9023 230.74 23.3125 230.824C23.7227 230.902 24.0677 230.993 24.3477 231.098L23.752 232.836C23.5306 232.764 23.2832 232.699 23.0098 232.641C22.7363 232.576 22.4434 232.543 22.1309 232.543C21.61 232.543 21.2259 232.706 20.9785 233.031C20.7376 233.357 20.6172 233.832 20.6172 234.457V235.189H23.2441V236.938ZM30.4805 236.938H27.8535V246H25.5586V236.938H23.791V235.834L25.5586 235.16V234.408C25.5586 233.49 25.7018 232.761 25.9883 232.221C26.2812 231.68 26.6979 231.293 27.2383 231.059C27.7852 230.818 28.4362 230.697 29.1914 230.697C29.6862 230.697 30.1387 230.74 30.5488 230.824C30.959 230.902 31.304 230.993 31.584 231.098L30.9883 232.836C30.7669 232.764 30.5195 232.699 30.2461 232.641C29.9727 232.576 29.6797 232.543 29.3672 232.543C28.8464 232.543 28.4622 232.706 28.2148 233.031C27.974 233.357 27.8535 233.832 27.8535 234.457V235.189H30.4805V236.938ZM34.6113 235.189V246H32.3164V235.189H34.6113ZM33.4785 231.049C33.8301 231.049 34.1328 231.143 34.3867 231.332C34.6471 231.521 34.7773 231.846 34.7773 232.309C34.7773 232.764 34.6471 233.09 34.3867 233.285C34.1328 233.474 33.8301 233.568 33.4785 233.568C33.1139 233.568 32.8047 233.474 32.5508 233.285C32.3034 233.09 32.1797 232.764 32.1797 232.309C32.1797 231.846 32.3034 231.521 32.5508 231.332C32.8047 231.143 33.1139 231.049 33.4785 231.049ZM42.2383 246.195C41.2161 246.195 40.3307 245.997 39.582 245.6C38.8333 245.202 38.2572 244.594 37.8535 243.773C37.4499 242.953 37.248 241.911 37.248 240.648C37.248 239.333 37.4694 238.259 37.9121 237.426C38.3548 236.592 38.9668 235.977 39.748 235.58C40.5358 235.183 41.4375 234.984 42.4531 234.984C43.0977 234.984 43.6803 235.049 44.2012 235.18C44.7285 235.303 45.1745 235.456 45.5391 235.639L44.8555 237.475C44.4583 237.312 44.0514 237.175 43.6348 237.064C43.2181 236.954 42.8177 236.898 42.4336 236.898C41.8021 236.898 41.2747 237.038 40.8516 237.318C40.4349 237.598 40.1224 238.015 39.9141 238.568C39.7122 239.122 39.6113 239.809 39.6113 240.629C39.6113 241.423 39.7155 242.094 39.9238 242.641C40.1322 243.181 40.4414 243.591 40.8516 243.871C41.2617 244.145 41.7663 244.281 42.3652 244.281C42.9577 244.281 43.4883 244.21 43.957 244.066C44.4258 243.923 44.8685 243.738 45.2852 243.51V245.502C44.875 245.736 44.4355 245.909 43.9668 246.02C43.498 246.137 42.9219 246.195 42.2383 246.195ZM50.1191 235.189V246H47.8242V235.189H50.1191ZM48.9863 231.049C49.3379 231.049 49.6406 231.143 49.8945 231.332C50.1549 231.521 50.2852 231.846 50.2852 232.309C50.2852 232.764 50.1549 233.09 49.8945 233.285C49.6406 233.474 49.3379 233.568 48.9863 233.568C48.6217 233.568 48.3125 233.474 48.0586 233.285C47.8112 233.09 47.6875 232.764 47.6875 232.309C47.6875 231.846 47.8112 231.521 48.0586 231.332C48.3125 231.143 48.6217 231.049 48.9863 231.049ZM57.6484 234.984C59.0156 234.984 60.0475 235.287 60.7441 235.893C61.4473 236.498 61.7988 237.442 61.7988 238.725V246H60.168L59.7285 244.467H59.6504C59.3444 244.857 59.0286 245.18 58.7031 245.434C58.3776 245.688 58 245.876 57.5703 246C57.1471 246.13 56.6296 246.195 56.0176 246.195C55.373 246.195 54.7969 246.078 54.2891 245.844C53.7812 245.603 53.3809 245.238 53.0879 244.75C52.7949 244.262 52.6484 243.643 52.6484 242.895C52.6484 241.781 53.0618 240.945 53.8887 240.385C54.722 239.825 55.9785 239.516 57.6582 239.457L59.5332 239.389V238.822C59.5332 238.074 59.3574 237.54 59.0059 237.221C58.6608 236.902 58.1725 236.742 57.541 236.742C57.0007 236.742 56.4766 236.82 55.9688 236.977C55.4609 237.133 54.9661 237.325 54.4844 237.553L53.7422 235.932C54.2695 235.652 54.8685 235.424 55.5391 235.248C56.2161 235.072 56.9193 234.984 57.6484 234.984ZM59.5234 240.834L58.127 240.883C56.9811 240.922 56.1771 241.117 55.7148 241.469C55.2526 241.82 55.0215 242.302 55.0215 242.914C55.0215 243.448 55.181 243.839 55.5 244.086C55.819 244.327 56.2389 244.447 56.7598 244.447C57.554 244.447 58.2116 244.223 58.7324 243.773C59.2598 243.318 59.5234 242.65 59.5234 241.771V240.834ZM67.3164 246H65.0117V230.805H67.3164V246ZM88.7031 238.842C88.7031 239.942 88.5632 240.945 88.2832 241.85C88.0098 242.748 87.5964 243.523 87.043 244.174C86.4896 244.818 85.7962 245.316 84.9629 245.668C84.1296 246.02 83.153 246.195 82.0332 246.195C80.8939 246.195 79.9043 246.02 79.0645 245.668C78.2311 245.316 77.5378 244.815 76.9844 244.164C76.4375 243.513 76.0273 242.735 75.7539 241.83C75.4805 240.925 75.3438 239.923 75.3438 238.822C75.3438 237.351 75.5846 236.068 76.0664 234.975C76.5547 233.874 77.2936 233.021 78.2832 232.416C79.2793 231.804 80.5358 231.498 82.0527 231.498C83.5371 231.498 84.7708 231.801 85.7539 232.406C86.737 233.012 87.4727 233.865 87.9609 234.965C88.4557 236.059 88.7031 237.351 88.7031 238.842ZM77.8047 238.842C77.8047 239.942 77.9544 240.896 78.2539 241.703C78.5534 242.504 79.0124 243.122 79.6309 243.559C80.2559 243.988 81.0566 244.203 82.0332 244.203C83.0163 244.203 83.8171 243.988 84.4355 243.559C85.054 243.122 85.5098 242.504 85.8027 241.703C86.0957 240.896 86.2422 239.942 86.2422 238.842C86.2422 237.169 85.9069 235.86 85.2363 234.916C84.5723 233.965 83.5111 233.49 82.0527 233.49C81.0762 233.49 80.2721 233.705 79.6406 234.135C79.0156 234.564 78.5534 235.18 78.2539 235.98C77.9544 236.775 77.8047 237.729 77.8047 238.842ZM100.617 246L99.2207 242.035H93.7617L92.3652 246H89.8945L95.207 231.664H97.8047L103.107 246H100.617ZM98.6152 240.023L97.2578 236.117C97.2057 235.948 97.1309 235.71 97.0332 235.404C96.9355 235.092 96.8379 234.776 96.7402 234.457C96.6426 234.132 96.5612 233.858 96.4961 233.637C96.431 233.904 96.3496 234.203 96.252 234.535C96.1608 234.861 96.0697 235.167 95.9785 235.453C95.8939 235.74 95.8288 235.961 95.7832 236.117L94.416 240.023H98.6152ZM113.234 242.113C113.234 242.96 113.026 243.689 112.609 244.301C112.199 244.913 111.607 245.382 110.832 245.707C110.064 246.033 109.146 246.195 108.078 246.195C107.557 246.195 107.059 246.166 106.584 246.107C106.109 246.049 105.66 245.964 105.236 245.854C104.82 245.736 104.439 245.596 104.094 245.434V243.227C104.673 243.48 105.321 243.712 106.037 243.92C106.753 244.122 107.482 244.223 108.225 244.223C108.83 244.223 109.331 244.145 109.729 243.988C110.132 243.826 110.432 243.598 110.627 243.305C110.822 243.005 110.92 242.657 110.92 242.26C110.92 241.837 110.806 241.479 110.578 241.186C110.35 240.893 110.005 240.626 109.543 240.385C109.087 240.137 108.514 239.874 107.824 239.594C107.355 239.405 106.906 239.19 106.477 238.949C106.053 238.708 105.676 238.425 105.344 238.1C105.012 237.774 104.748 237.39 104.553 236.947C104.364 236.498 104.27 235.971 104.27 235.365C104.27 234.558 104.462 233.868 104.846 233.295C105.236 232.722 105.783 232.283 106.486 231.977C107.196 231.671 108.023 231.518 108.967 231.518C109.715 231.518 110.419 231.596 111.076 231.752C111.74 231.908 112.391 232.13 113.029 232.416L112.287 234.301C111.701 234.06 111.132 233.868 110.578 233.725C110.031 233.581 109.471 233.51 108.898 233.51C108.404 233.51 107.984 233.585 107.639 233.734C107.294 233.884 107.03 234.096 106.848 234.369C106.672 234.636 106.584 234.955 106.584 235.326C106.584 235.743 106.685 236.094 106.887 236.381C107.095 236.661 107.414 236.918 107.844 237.152C108.28 237.387 108.84 237.647 109.523 237.934C110.311 238.259 110.979 238.601 111.525 238.959C112.079 239.317 112.502 239.747 112.795 240.248C113.088 240.743 113.234 241.365 113.234 242.113ZM115.988 246V231.723H118.332V246H115.988ZM130.344 242.113C130.344 242.96 130.135 243.689 129.719 244.301C129.309 244.913 128.716 245.382 127.941 245.707C127.173 246.033 126.255 246.195 125.188 246.195C124.667 246.195 124.169 246.166 123.693 246.107C123.218 246.049 122.769 245.964 122.346 245.854C121.929 245.736 121.548 245.596 121.203 245.434V243.227C121.783 243.48 122.43 243.712 123.146 243.92C123.863 244.122 124.592 244.223 125.334 244.223C125.939 244.223 126.441 244.145 126.838 243.988C127.242 243.826 127.541 243.598 127.736 243.305C127.932 243.005 128.029 242.657 128.029 242.26C128.029 241.837 127.915 241.479 127.688 241.186C127.46 240.893 127.115 240.626 126.652 240.385C126.197 240.137 125.624 239.874 124.934 239.594C124.465 239.405 124.016 239.19 123.586 238.949C123.163 238.708 122.785 238.425 122.453 238.1C122.121 237.774 121.857 237.39 121.662 236.947C121.473 236.498 121.379 235.971 121.379 235.365C121.379 234.558 121.571 233.868 121.955 233.295C122.346 232.722 122.893 232.283 123.596 231.977C124.305 231.671 125.132 231.518 126.076 231.518C126.825 231.518 127.528 231.596 128.186 231.752C128.85 231.908 129.501 232.13 130.139 232.416L129.396 234.301C128.811 234.06 128.241 233.868 127.688 233.725C127.141 233.581 126.581 233.51 126.008 233.51C125.513 233.51 125.093 233.585 124.748 233.734C124.403 233.884 124.139 234.096 123.957 234.369C123.781 234.636 123.693 234.955 123.693 235.326C123.693 235.743 123.794 236.094 123.996 236.381C124.204 236.661 124.523 236.918 124.953 237.152C125.389 237.387 125.949 237.647 126.633 237.934C127.421 238.259 128.088 238.601 128.635 238.959C129.188 239.317 129.611 239.747 129.904 240.248C130.197 240.743 130.344 241.365 130.344 242.113ZM147.141 246L145.744 242.035H140.285L138.889 246H136.418L141.73 231.664H144.328L149.631 246H147.141ZM145.139 240.023L143.781 236.117C143.729 235.948 143.654 235.71 143.557 235.404C143.459 235.092 143.361 234.776 143.264 234.457C143.166 234.132 143.085 233.858 143.02 233.637C142.954 233.904 142.873 234.203 142.775 234.535C142.684 234.861 142.593 235.167 142.502 235.453C142.417 235.74 142.352 235.961 142.307 236.117L140.939 240.023H145.139ZM156.828 234.984C158.111 234.984 159.139 235.453 159.914 236.391C160.695 237.328 161.086 238.721 161.086 240.57C161.086 241.794 160.904 242.826 160.539 243.666C160.181 244.499 159.676 245.131 159.025 245.561C158.381 245.984 157.629 246.195 156.77 246.195C156.223 246.195 155.747 246.124 155.344 245.98C154.94 245.837 154.595 245.652 154.309 245.424C154.022 245.189 153.781 244.936 153.586 244.662H153.449C153.482 244.923 153.511 245.212 153.537 245.531C153.57 245.844 153.586 246.13 153.586 246.391V250.795H151.281V235.189H153.156L153.479 236.684H153.586C153.788 236.378 154.032 236.094 154.318 235.834C154.611 235.574 154.963 235.368 155.373 235.219C155.79 235.062 156.275 234.984 156.828 234.984ZM156.213 236.859C155.581 236.859 155.074 236.986 154.689 237.24C154.312 237.488 154.035 237.862 153.859 238.363C153.69 238.865 153.599 239.493 153.586 240.248V240.57C153.586 241.371 153.667 242.051 153.83 242.611C153.999 243.165 154.276 243.588 154.66 243.881C155.051 244.167 155.578 244.311 156.242 244.311C156.802 244.311 157.264 244.158 157.629 243.852C158 243.546 158.277 243.109 158.459 242.543C158.641 241.977 158.732 241.309 158.732 240.541C158.732 239.376 158.524 238.471 158.107 237.826C157.697 237.182 157.066 236.859 156.213 236.859ZM169.289 234.984C170.572 234.984 171.6 235.453 172.375 236.391C173.156 237.328 173.547 238.721 173.547 240.57C173.547 241.794 173.365 242.826 173 243.666C172.642 244.499 172.137 245.131 171.486 245.561C170.842 245.984 170.09 246.195 169.23 246.195C168.684 246.195 168.208 246.124 167.805 245.98C167.401 245.837 167.056 245.652 166.77 245.424C166.483 245.189 166.242 244.936 166.047 244.662H165.91C165.943 244.923 165.972 245.212 165.998 245.531C166.031 245.844 166.047 246.13 166.047 246.391V250.795H163.742V235.189H165.617L165.939 236.684H166.047C166.249 236.378 166.493 236.094 166.779 235.834C167.072 235.574 167.424 235.368 167.834 235.219C168.251 235.062 168.736 234.984 169.289 234.984ZM168.674 236.859C168.042 236.859 167.535 236.986 167.15 237.24C166.773 237.488 166.496 237.862 166.32 238.363C166.151 238.865 166.06 239.493 166.047 240.248V240.57C166.047 241.371 166.128 242.051 166.291 242.611C166.46 243.165 166.737 243.588 167.121 243.881C167.512 244.167 168.039 244.311 168.703 244.311C169.263 244.311 169.725 244.158 170.09 243.852C170.461 243.546 170.738 243.109 170.92 242.543C171.102 241.977 171.193 241.309 171.193 240.541C171.193 239.376 170.985 238.471 170.568 237.826C170.158 237.182 169.527 236.859 168.674 236.859ZM190.324 246H180.656V244.271L184.357 240.521C185.074 239.792 185.663 239.164 186.125 238.637C186.587 238.103 186.929 237.598 187.15 237.123C187.378 236.648 187.492 236.13 187.492 235.57C187.492 234.88 187.294 234.359 186.896 234.008C186.499 233.65 185.975 233.471 185.324 233.471C184.706 233.471 184.133 233.594 183.605 233.842C183.085 234.083 182.544 234.428 181.984 234.877L180.725 233.363C181.122 233.025 181.545 232.715 181.994 232.436C182.45 232.156 182.958 231.934 183.518 231.771C184.077 231.602 184.715 231.518 185.432 231.518C186.337 231.518 187.118 231.68 187.775 232.006C188.433 232.325 188.938 232.771 189.289 233.344C189.647 233.917 189.826 234.584 189.826 235.346C189.826 236.114 189.673 236.824 189.367 237.475C189.061 238.126 188.625 238.77 188.059 239.408C187.492 240.04 186.818 240.727 186.037 241.469L183.566 243.881V243.988H190.324V246ZM201.77 238.852C201.77 240.004 201.678 241.036 201.496 241.947C201.32 242.852 201.04 243.62 200.656 244.252C200.272 244.883 199.771 245.365 199.152 245.697C198.534 246.029 197.785 246.195 196.906 246.195C195.806 246.195 194.898 245.906 194.182 245.326C193.465 244.74 192.935 243.9 192.59 242.807C192.245 241.706 192.072 240.388 192.072 238.852C192.072 237.315 192.229 236 192.541 234.906C192.86 233.806 193.374 232.963 194.084 232.377C194.794 231.791 195.734 231.498 196.906 231.498C198.013 231.498 198.924 231.791 199.641 232.377C200.363 232.956 200.897 233.796 201.242 234.896C201.594 235.99 201.77 237.309 201.77 238.852ZM194.387 238.852C194.387 240.056 194.465 241.062 194.621 241.869C194.784 242.676 195.051 243.282 195.422 243.686C195.793 244.083 196.288 244.281 196.906 244.281C197.525 244.281 198.02 244.083 198.391 243.686C198.762 243.288 199.029 242.686 199.191 241.879C199.361 241.072 199.445 240.062 199.445 238.852C199.445 237.654 199.364 236.651 199.201 235.844C199.038 235.036 198.771 234.431 198.4 234.027C198.029 233.617 197.531 233.412 196.906 233.412C196.281 233.412 195.783 233.617 195.412 234.027C195.048 234.431 194.784 235.036 194.621 235.844C194.465 236.651 194.387 237.654 194.387 238.852ZM213.215 246H203.547V244.271L207.248 240.521C207.964 239.792 208.553 239.164 209.016 238.637C209.478 238.103 209.82 237.598 210.041 237.123C210.269 236.648 210.383 236.13 210.383 235.57C210.383 234.88 210.184 234.359 209.787 234.008C209.39 233.65 208.866 233.471 208.215 233.471C207.596 233.471 207.023 233.594 206.496 233.842C205.975 234.083 205.435 234.428 204.875 234.877L203.615 233.363C204.012 233.025 204.436 232.715 204.885 232.436C205.34 232.156 205.848 231.934 206.408 231.771C206.968 231.602 207.606 231.518 208.322 231.518C209.227 231.518 210.008 231.68 210.666 232.006C211.324 232.325 211.828 232.771 212.18 233.344C212.538 233.917 212.717 234.584 212.717 235.346C212.717 236.114 212.564 236.824 212.258 237.475C211.952 238.126 211.516 238.77 210.949 239.408C210.383 240.04 209.709 240.727 208.928 241.469L206.457 243.881V243.988H213.215V246ZM224.66 246H214.992V244.271L218.693 240.521C219.41 239.792 219.999 239.164 220.461 238.637C220.923 238.103 221.265 237.598 221.486 237.123C221.714 236.648 221.828 236.13 221.828 235.57C221.828 234.88 221.63 234.359 221.232 234.008C220.835 233.65 220.311 233.471 219.66 233.471C219.042 233.471 218.469 233.594 217.941 233.842C217.421 234.083 216.88 234.428 216.32 234.877L215.061 233.363C215.458 233.025 215.881 232.715 216.33 232.436C216.786 232.156 217.294 231.934 217.854 231.771C218.413 231.602 219.051 231.518 219.768 231.518C220.673 231.518 221.454 231.68 222.111 232.006C222.769 232.325 223.273 232.771 223.625 233.344C223.983 233.917 224.162 234.584 224.162 235.346C224.162 236.114 224.009 236.824 223.703 237.475C223.397 238.126 222.961 238.77 222.395 239.408C221.828 240.04 221.154 240.727 220.373 241.469L217.902 243.881V243.988H224.66V246Z" fill="white"/>
<path d="M56.4154 170.5C55.3186 169.728 52.3511 167.861 48.5325 168.219C44.5089 168.594 41.9903 171.237 39.821 173.508C38.4825 174.907 35.5414 178.066 34.5827 183.101C34.2841 184.667 33.7601 187.423 34.8691 190.634C35.1535 191.457 37.1034 196.817 42.4168 198.41C45.8088 199.425 48.7397 198.359 49.9706 197.912C53.0234 196.801 54.8291 194.896 56.001 193.63C57.2095 192.324 60.2136 189.078 60.8757 183.984C61.7166 177.503 58.1621 172.687 57.3497 171.641C58.5724 172.47 61.1398 174.46 62.5352 177.968C64.1784 182.097 63.1973 185.802 62.5921 188.089C61.2962 192.98 58.5399 195.999 57.6523 196.904C56.7546 197.82 55.0504 199.527 52.2414 200.747C48.5183 202.364 45.238 202.094 44.5921 202.031C44.1575 201.988 37.8894 201.273 33.9084 196.015C28.7838 189.243 31.8427 180.615 32.5597 178.59C35.2164 171.095 41.3383 167.114 45.0065 165.729C46.2658 165.253 47.3565 165.036 48.5325 165.107C52.9381 165.367 55.7471 169.47 56.4154 170.5Z" fill="white"/>
<path d="M85.9744 190.413C84.9263 191.735 83.3806 193.354 81.2033 194.77C80.7442 195.068 80.2933 195.334 79.8546 195.572C79.7916 196.133 79.7469 196.789 79.753 197.518C79.7551 198.026 79.7815 198.44 79.8038 198.712C79.0604 198.844 78.1505 199.074 77.1593 199.49C75.7659 200.073 74.7158 200.81 73.9968 201.407C74.4619 200.128 74.9291 198.85 75.3962 197.571C74.7138 197.95 73.7328 198.428 72.4917 198.816C71.8235 199.023 69.8858 199.575 67.2595 199.484C65.3889 199.421 64.4545 199.388 63.7802 198.816C62.1614 197.439 62.724 194.455 62.8987 193.525C63.0734 192.592 63.4572 191.313 64.8689 189.17C66.8106 186.219 68.3238 183.923 71.2995 182.532C74.5513 181.011 77.728 181.423 79.2859 181.754C77.7503 181.679 74.661 181.77 71.7666 183.672C70.4383 184.545 69.5872 185.514 69.0957 186.078C68.2426 187.064 66.7172 188.865 66.2176 191.554C65.9637 192.921 65.6935 194.368 66.5283 195.495C67.4505 196.74 69.1668 196.85 70.6779 196.947C71.7321 197.014 73.5703 196.978 75.7598 196.066C76.4403 194.292 77.6853 190.878 78.5079 187.354C78.5953 186.978 78.7862 186.044 79.1701 184.179C79.4748 182.697 79.5398 181.549 79.816 180.089C79.8729 179.788 80.0171 179.059 79.8038 178.175C79.5255 177.018 78.7456 176.055 77.9372 175.531C77.0699 174.968 76.0645 174.838 73.2189 175.271C70.4403 175.693 68.0984 176.051 65.0029 177.393C63.7579 177.934 62.0476 178.783 60.1506 180.095C61.9034 178.165 64.5317 175.86 68.1878 174.233C71.6793 172.683 74.401 172.51 75.8634 172.523C79.2209 172.549 80.466 173.583 80.7889 173.871C82.1274 175.064 82.4666 176.707 82.5012 176.879C82.6982 177.901 82.5276 178.72 82.4483 179.108C81.9568 181.527 81.7557 183.995 81.3089 186.42C80.3949 191.372 80.7056 191.203 80.1674 193.732C80.1308 193.902 80.078 194.144 80.0232 194.451C81.0895 193.949 82.2696 193.293 83.4863 192.436C84.449 191.758 85.2757 191.067 85.9744 190.413Z" fill="white"/>
<path d="M94.8932 173.819C94.5987 173.433 93.5851 172.21 91.8343 171.848C90.3049 171.534 88.2311 171.879 87.0632 173.455C86.3421 174.432 85.8709 176.01 86.5005 177.32C86.9839 178.324 87.9203 178.766 88.8749 179.203C90.5323 179.961 91.8709 179.981 92.923 180.095C95.0719 180.33 96.5343 181.015 99.0123 182.175C99.4612 182.386 107.078 186.087 108.118 193.212C108.76 197.601 106.597 201.18 105.886 202.319C99.9609 211.823 85.5337 212.075 81.6685 212.14C71.2386 212.315 63.0938 208.409 58.5399 205.659C60.4066 206.406 62.9983 207.34 66.1628 208.149C69.5284 209.008 75.8493 210.566 83.9494 209.912C88.9643 209.508 93.3881 209.15 97.9521 206.126C99.9832 204.779 104.062 202.076 104.797 197.361C105.305 194.116 103.978 191.5 103.138 189.842C102.837 189.249 99.7842 183.428 94.0624 182.012C93.0083 181.752 93.055 181.935 90.7944 181.494C86.9718 180.749 85.0361 180.345 83.8966 178.901C83.0314 177.804 82.548 176.12 82.9623 174.647C84.051 170.78 91.1112 169.121 93.7497 171.588C94.426 172.222 94.7408 173.061 94.8912 173.819H94.8932Z" fill="white"/>
<path d="M86.8032 190.309C91.2636 184.923 95.8925 181.722 98.9372 179.938C102.415 177.901 106.859 175.364 113.043 175.064C114.817 174.978 116.293 175.096 117.297 175.22C117.136 178.917 116.84 182.851 116.362 186.993C115.816 191.739 115.099 196.173 114.289 200.268C114.573 199.823 115.168 199.025 116.208 198.401C117.419 197.676 118.574 197.581 119.112 197.571C117.89 198.393 116.598 199.338 115.276 200.422C114.36 201.174 113.513 201.921 112.735 202.653C112.493 202.77 112.099 202.925 111.593 202.963C110.901 203.016 110.36 202.823 110.09 202.703C110.45 198.824 110.892 195.737 111.232 193.628C111.798 190.102 112.369 186.574 112.94 183.048C112.997 182.697 113.139 181.748 112.761 180.69C112.643 180.363 112.328 179.514 111.542 178.953C110.7 178.35 109.729 178.401 108.898 178.435C105.601 178.572 103.142 179.577 103.142 179.577C99.317 181.139 96.4958 182.999 95.4152 183.727C93.1119 185.274 90.1262 187.439 86.8073 190.314L86.8032 190.309Z" fill="white"/>
<path d="M117.711 187.147C117.467 187.998 116.5 191.729 118.542 195.497C118.96 196.267 120.366 198.771 123.416 200.061C126.705 201.45 129.697 200.494 130.885 200.114C132.112 199.722 134.37 198.999 136.07 196.742C136.375 196.338 138.118 193.951 137.838 190.669C137.77 189.887 137.636 188.317 136.538 186.889C135.581 185.646 134.372 185.132 132.648 184.399C130.511 183.491 129.938 183.731 128.137 182.739C126.886 182.051 126.102 181.62 125.647 180.666C125.035 179.378 125.249 177.607 126.321 176.412C127.4 175.212 128.876 175.119 129.38 175.117C131.23 175.11 132.398 176.307 132.595 176.516C132.242 175.962 131.358 174.755 129.794 174.235C127.162 173.36 123.912 174.869 122.896 177.398C122.226 179.071 122.758 180.631 122.844 180.873C123.528 182.788 125.251 183.662 126.209 184.149C128.015 185.067 128.46 184.529 130.467 185.384C131.738 185.926 133.639 186.737 134.46 188.546C135.394 190.61 134.506 193.045 133.475 194.459C131.525 197.13 128.145 197.408 126.163 197.571C124.586 197.701 123.063 197.827 121.599 197.104C118.767 195.706 117.319 191.707 117.709 187.147H117.711Z" fill="white"/>
<path d="M143.64 165.729C143.61 165.771 143.395 166.09 143.502 166.247C143.61 166.403 143.929 166.247 144.262 166.316C144.898 166.446 145.215 167.311 145.231 167.354C145.519 168.168 144.969 168.834 144.158 170.672C143.774 171.544 143.514 172.269 143.364 172.712C144 172.247 144.77 171.556 145.438 170.569C147.258 167.88 146.986 164.955 146.856 164C146.112 164.618 145.446 164.898 144.955 165.038C144.542 165.156 143.971 165.253 143.64 165.729Z" fill="white"/>
<path d="M150.538 183.645C150.711 183.763 150.912 183.802 150.912 183.802C150.991 183.816 151.286 183.873 151.535 183.698C151.568 183.676 151.702 183.578 151.795 183.361C151.948 183.008 151.854 182.656 151.795 182.402C151.795 182.402 151.629 181.675 151.592 180.926C151.58 180.682 151.596 180.416 151.887 179.368C152.104 178.584 152.303 177.873 152.567 177.219C154.056 173.536 157.834 171.215 158.508 170.914C159.229 170.593 159.215 170.725 161.965 169.976C162.124 169.933 162.453 169.842 162.865 169.911C162.865 169.911 163.401 170 163.903 170.429C164.545 170.977 165.495 172.838 165.562 174.682C165.699 178.46 162.146 182.727 158.821 186.643C157.355 188.372 153.918 192.243 148.692 196.289C148.007 196.819 147.428 197.246 147.032 197.534C146.906 197.764 146.783 198.085 146.791 198.469C146.807 199.293 147.42 200.067 148.347 200.473C150.558 200.029 153.554 199.431 157.302 198.71C157.302 198.71 159.079 198.367 161.943 198.211C164.681 198.06 166.17 198.235 167.242 199.214C167.592 199.533 167.815 199.864 167.949 200.094C167.963 200.11 168.3 200.469 168.78 200.37C169.095 200.305 169.365 200.063 169.432 199.773C169.483 199.553 169.411 199.332 169.125 198.917C169.068 198.834 168.42 197.93 167.811 197.534C165.461 196.009 159.307 196.809 159.307 196.809C157.395 197.057 154.907 197.463 152.013 198.158C154.724 195.909 156.851 193.864 158.374 192.314C158.612 192.073 162.37 188.217 166.326 182.599C167.005 181.637 168.177 179.928 168.954 177.448C169.822 174.678 169.503 173.161 169.403 172.746C169.271 172.19 168.896 170.705 167.581 169.519C166.375 168.43 165.03 168.186 163.974 168.01C159.963 167.337 156.688 169.113 156.126 169.427C153.02 171.168 151.55 173.774 151.009 174.889C148.885 179.274 150.14 183.371 150.542 183.645H150.538Z" fill="white"/>
<path d="M174.152 174.53C174.099 174.534 174.051 174.536 174.006 174.538C174.042 174.53 174.079 174.528 174.118 174.528C174.13 174.528 174.142 174.528 174.152 174.53Z" fill="white"/>
<path d="M174.311 175.99C174.25 176.006 174.185 176.014 174.118 176.014C174.061 176.014 174.006 176.008 173.953 175.996C174.063 175.996 174.183 175.994 174.311 175.99Z" fill="white"/>
<path d="M175.21 184.08C175.383 184.198 175.584 184.236 175.584 184.236C175.663 184.25 175.958 184.307 176.208 184.133C176.24 184.11 176.374 184.013 176.468 183.796C176.62 183.442 176.527 183.091 176.468 182.837C176.468 182.837 176.301 182.11 176.265 181.36C176.252 181.116 176.269 180.85 176.559 179.802C176.776 179.018 176.975 178.307 177.239 177.653C178.728 173.971 182.506 171.649 183.181 171.349C183.902 171.028 183.887 171.16 186.638 170.41C186.796 170.368 187.125 170.276 187.537 170.345C187.537 170.345 188.074 170.435 188.575 170.863C189.217 171.412 190.168 173.272 190.235 175.116C190.371 178.894 186.818 183.162 183.493 187.078C182.027 188.806 178.59 192.678 173.364 196.724C172.68 197.254 172.101 197.68 171.705 197.969C171.579 198.198 171.455 198.519 171.463 198.903C171.479 199.728 172.093 200.502 173.019 200.908C175.231 200.463 178.227 199.866 181.974 199.145C181.974 199.145 183.751 198.802 186.615 198.645C189.353 198.495 190.842 198.67 191.914 199.649C192.264 199.967 192.487 200.298 192.621 200.528C192.635 200.544 192.973 200.904 193.452 200.804C193.767 200.739 194.037 200.498 194.104 200.207C194.155 199.988 194.084 199.766 193.797 199.352C193.74 199.269 193.092 198.365 192.483 197.969C190.133 196.443 183.979 197.244 183.979 197.244C182.067 197.491 179.579 197.898 176.685 198.592C179.397 196.344 181.523 194.299 183.046 192.749C183.284 192.507 187.042 188.652 190.998 183.034C191.677 182.071 192.849 180.363 193.627 177.883C194.494 175.112 194.175 173.595 194.076 173.181C193.944 172.624 193.568 171.14 192.254 169.953C191.047 168.865 189.703 168.621 188.646 168.444C184.635 167.772 181.361 169.547 180.798 169.862C177.692 171.603 176.222 174.209 175.682 175.324C173.557 179.709 174.812 183.806 175.214 184.08H175.21Z" fill="white"/>
</svg>
