<svg width="175" height="253" viewBox="0 0 175 253" fill="none" xmlns="http://www.w3.org/2000/svg">
    <defs>
        <linearGradient id="paint0_linear_1380_20892" x1="25" y1="0" x2="158.57" y2="9.09154" gradientUnits="userSpaceOnUse">
            <stop stop-color="#D19A08"/>
            <stop offset="0.276042" stop-color="#FED466"/>
            <stop offset="0.5" stop-color="#E3BA4F"/>
            <stop offset="0.739583" stop-color="#D19A08"/>
            <stop offset="1" stop-color="#D19A08"/>
        </linearGradient>
    </defs>
    <path fill-rule="evenodd" clip-rule="evenodd" d="M81.1659 92.1918C84.7073 100.056 90.085 106.96 96.8491 112.327C93.9133 106.485 92.2124 100.103 91.8521 93.5779C91.5924 88.5616 91.0517 77.9412 97.5413 69.5538C99.1776 67.4504 100.269 66.7612 104.26 64.2402L104.26 64.2401C106.205 63.0116 108.838 61.3481 112.559 58.8739C122.78 52.0831 127.891 48.6849 130.238 46.2037C131.314 45.0656 145.364 29.8118 140.454 15.9064C138.631 10.7499 134.635 6.99582 133.618 6.0573C130.61 3.29395 127.028 1.22581 123.127 0C125.771 2.66457 130.411 8.2472 130.098 15.216C129.546 27.4547 114.036 35.2434 111.283 36.6243C107.16 38.7 103.893 39.4937 100.87 40.2282C96.8233 41.2115 93.2129 42.0888 88.5694 45.7937C85.0786 48.5614 82.1632 51.9822 79.9868 55.8641C71.837 70.9237 79.392 88.1841 81.1659 92.1918ZM27.6698 84.2355C22.1265 93.1515 26.8207 104.349 27.5346 105.994C27.5995 104.543 28.1457 95.8592 35.241 90.4222L35.2608 90.4072C36.5882 89.4031 41.4807 85.7022 47.6794 86.7004C52.7846 87.5257 55.8725 91.0748 58.0358 93.5884C64.1198 100.719 70.777 115.288 63.9846 125.261C61.3239 129.172 55.6995 133.719 49.2099 133.249C47.2738 133.099 45.3918 132.54 43.6883 131.61C45.2404 133.622 48.5231 137.246 53.7689 138.767C55.3967 139.242 58.3819 139.852 65.9206 138.492C70.868 137.602 73.291 136.671 75.334 135.886C76.9692 135.257 78.361 134.722 80.6089 134.377C90.9922 132.775 100.254 138.172 107.81 142.576L107.892 142.624C112.05 145.055 115.938 147.917 119.493 151.162C118.95 146.072 117.318 141.157 114.706 136.75C111.357 131.227 107.565 128.684 102.485 125.277L102.485 125.277C99.3303 123.161 95.6786 120.712 91.3276 117.009C83.5779 110.433 78.0347 105.552 74.4816 97.7309C69.1061 85.8807 72.2156 73.6581 73.9407 66.8835C75.2595 61.7462 77.7486 54.7604 80.1975 47.8872L80.1976 47.8872L80.1976 47.8871C82.7703 40.6667 85.2986 33.5707 86.3792 28.8729C86.8934 26.7997 86.9872 24.645 86.655 22.5352C86.179 19.8216 85.0364 17.268 83.329 15.1025C82.4367 22.7833 80.3547 34.3208 75.044 46.0847C74.3086 47.7084 69.8361 57.4551 63.4005 63.2373C61.7454 64.6917 60.0045 66.0462 58.1872 67.2934C55.8495 68.9121 53.3568 70.2961 50.7457 71.425C48.6404 72.3222 46.9181 72.7277 45.484 73.0653C44.5384 73.2878 43.7182 73.4809 42.9962 73.766C37.8477 75.8103 31.2823 78.421 27.6698 84.2355ZM49.7611 64.4024C54.7936 64.4024 58.8735 60.3332 58.8735 55.3138C58.8735 50.2943 54.7936 46.2251 49.7611 46.2251C44.7283 46.2251 40.6484 50.2943 40.6484 55.3138C40.6484 60.3332 44.7283 64.4024 49.7611 64.4024ZM96.8489 97.7313C94.6424 79.1818 110.564 65.0392 112.727 63.1621C111.234 65.2442 102.76 77.4558 106.664 91.6686C107.748 95.5786 109.619 99.2274 112.164 102.392C111.542 97.3617 112.875 92.2851 115.891 88.2057C118.553 84.7525 122.294 82.2846 126.523 81.1938C121.63 91.0474 119.62 102.077 120.725 113.018C121.607 121.239 124.248 129.176 128.47 136.292C120.383 132.259 113.269 126.527 107.616 119.49C103.679 114.555 98.0061 107.44 96.8489 97.7313ZM87.5956 12.0713C89.307 14.7326 90.3923 17.7457 90.7701 20.8848C90.8673 21.7533 91.0621 23.9917 89.5315 31.9046C88.8663 35.3243 88.2121 38.1183 87.7361 40.0276C89.3323 38.3234 91.1514 36.841 93.1441 35.6209C97.2663 33.0805 100.975 32.4245 104.237 31.8477C105.13 31.6897 105.99 31.5376 106.816 31.3544C111.018 30.4212 116.848 28.118 123.386 21.9852C121.134 22.7281 118.824 23.282 116.48 23.6411C113.506 24.0774 110.511 24.3528 107.508 24.4664C107.248 24.4737 106.998 24.4793 106.757 24.4848L106.756 24.4848C104.851 24.5279 103.457 24.5593 101.705 25.2917C100.536 25.7937 99.4622 26.4925 98.5306 27.3574C98.9174 25.0414 98.6804 22.6642 97.8437 20.4695C95.3074 14.0454 88.4013 12.2655 87.5956 12.0713ZM115.625 62.6389C114.415 64.9629 113.889 67.5806 114.105 70.1902C116.426 66.3229 118.989 64.4403 120.903 63.4371C122.352 62.6711 123.53 62.3545 125.052 61.9455C126.167 61.6461 127.465 61.2973 129.188 60.6863C131.717 59.7933 134.165 58.6873 136.505 57.3798C135.234 60.7186 132.915 65.0445 128.502 67.2937C127.042 68.0386 126.12 68.1656 125.021 68.3169C124.21 68.4286 123.302 68.5535 122.012 68.9496C115.019 71.091 107.313 77.9575 107.513 85.4765C107.606 87.7379 108.325 89.9296 109.59 91.8089C109.802 89.672 110.363 87.5843 111.25 85.6275C111.839 84.3168 114.792 77.8172 120.492 76.3824C121.465 76.1359 122.047 76.1597 122.721 76.1872C123.433 76.2163 124.248 76.2496 125.738 75.9725C128.194 75.4954 130.537 74.5602 132.644 73.2163C132.638 73.2863 132.631 73.3637 132.624 73.448C132.573 74.0188 132.496 74.9056 132.368 75.9725C131.827 80.4871 130.892 84.6566 127.604 97.1433C127.069 98.9241 126.706 100.752 126.522 102.602C126.432 105.118 126.579 107.637 126.96 110.126C127.89 115.596 132.655 125.003 139.523 125.413C143.054 125.623 147.354 123.465 148.225 120.315C148.673 118.692 148.078 117.252 147.392 115.634C145.288 110.596 141.01 107.958 139.112 106.82C136.433 105.228 133.478 104.153 130.4 103.654C136.568 77.2167 142.735 50.7831 148.901 24.3533L146.829 22.5625C141.502 43.6093 135.781 50.1791 131.227 51.8996C128.337 53.0045 125.562 54.3883 122.942 56.0314C117.448 59.4565 116.036 61.8837 115.625 62.6389Z" fill="url(#paint0_linear_1380_20892)"/>
<path d="M15 238.842C15 239.942 14.86 240.945 14.5801 241.85C14.3066 242.748 13.8932 243.523 13.3398 244.174C12.7865 244.818 12.0931 245.316 11.2598 245.668C10.4264 246.02 9.44987 246.195 8.33008 246.195C7.19076 246.195 6.20117 246.02 5.36133 245.668C4.52799 245.316 3.83464 244.815 3.28125 244.164C2.73438 243.513 2.32422 242.735 2.05078 241.83C1.77734 240.925 1.64062 239.923 1.64062 238.822C1.64062 237.351 1.88151 236.068 2.36328 234.975C2.85156 233.874 3.59049 233.021 4.58008 232.416C5.57617 231.804 6.83268 231.498 8.34961 231.498C9.83398 231.498 11.0677 231.801 12.0508 232.406C13.0339 233.012 13.7695 233.865 14.2578 234.965C14.7526 236.059 15 237.351 15 238.842ZM4.10156 238.842C4.10156 239.942 4.2513 240.896 4.55078 241.703C4.85026 242.504 5.30924 243.122 5.92773 243.559C6.55273 243.988 7.35352 244.203 8.33008 244.203C9.31315 244.203 10.1139 243.988 10.7324 243.559C11.3509 243.122 11.8066 242.504 12.0996 241.703C12.3926 240.896 12.5391 239.942 12.5391 238.842C12.5391 237.169 12.2038 235.86 11.5332 234.916C10.8691 233.965 9.80794 233.49 8.34961 233.49C7.37305 233.49 6.56901 233.705 5.9375 234.135C5.3125 234.564 4.85026 235.18 4.55078 235.98C4.2513 236.775 4.10156 237.729 4.10156 238.842ZM23.2324 236.938H20.6055V246H18.3105V236.938H16.543V235.834L18.3105 235.16V234.408C18.3105 233.49 18.4538 232.761 18.7402 232.221C19.0332 231.68 19.4499 231.293 19.9902 231.059C20.5371 230.818 21.1882 230.697 21.9434 230.697C22.4382 230.697 22.8906 230.74 23.3008 230.824C23.7109 230.902 24.056 230.993 24.3359 231.098L23.7402 232.836C23.5189 232.764 23.2715 232.699 22.998 232.641C22.7246 232.576 22.4316 232.543 22.1191 232.543C21.5983 232.543 21.2142 232.706 20.9668 233.031C20.7259 233.357 20.6055 233.832 20.6055 234.457V235.189H23.2324V236.938ZM30.4688 236.938H27.8418V246H25.5469V236.938H23.7793V235.834L25.5469 235.16V234.408C25.5469 233.49 25.6901 232.761 25.9766 232.221C26.2695 231.68 26.6862 231.293 27.2266 231.059C27.7734 230.818 28.4245 230.697 29.1797 230.697C29.6745 230.697 30.127 230.74 30.5371 230.824C30.9473 230.902 31.2923 230.993 31.5723 231.098L30.9766 232.836C30.7552 232.764 30.5078 232.699 30.2344 232.641C29.9609 232.576 29.668 232.543 29.3555 232.543C28.8346 232.543 28.4505 232.706 28.2031 233.031C27.9622 233.357 27.8418 233.832 27.8418 234.457V235.189H30.4688V236.938ZM34.5996 235.189V246H32.3047V235.189H34.5996ZM33.4668 231.049C33.8184 231.049 34.1211 231.143 34.375 231.332C34.6354 231.521 34.7656 231.846 34.7656 232.309C34.7656 232.764 34.6354 233.09 34.375 233.285C34.1211 233.474 33.8184 233.568 33.4668 233.568C33.1022 233.568 32.793 233.474 32.5391 233.285C32.2917 233.09 32.168 232.764 32.168 232.309C32.168 231.846 32.2917 231.521 32.5391 231.332C32.793 231.143 33.1022 231.049 33.4668 231.049ZM42.2266 246.195C41.2044 246.195 40.319 245.997 39.5703 245.6C38.8216 245.202 38.2454 244.594 37.8418 243.773C37.4382 242.953 37.2363 241.911 37.2363 240.648C37.2363 239.333 37.4577 238.259 37.9004 237.426C38.3431 236.592 38.9551 235.977 39.7363 235.58C40.5241 235.183 41.4258 234.984 42.4414 234.984C43.0859 234.984 43.6686 235.049 44.1895 235.18C44.7168 235.303 45.1628 235.456 45.5273 235.639L44.8438 237.475C44.4466 237.312 44.0397 237.175 43.623 237.064C43.2064 236.954 42.806 236.898 42.4219 236.898C41.7904 236.898 41.263 237.038 40.8398 237.318C40.4232 237.598 40.1107 238.015 39.9023 238.568C39.7005 239.122 39.5996 239.809 39.5996 240.629C39.5996 241.423 39.7038 242.094 39.9121 242.641C40.1204 243.181 40.4297 243.591 40.8398 243.871C41.25 244.145 41.7546 244.281 42.3535 244.281C42.946 244.281 43.4766 244.21 43.9453 244.066C44.4141 243.923 44.8568 243.738 45.2734 243.51V245.502C44.8633 245.736 44.4238 245.909 43.9551 246.02C43.4863 246.137 42.9102 246.195 42.2266 246.195ZM50.1074 235.189V246H47.8125V235.189H50.1074ZM48.9746 231.049C49.3262 231.049 49.6289 231.143 49.8828 231.332C50.1432 231.521 50.2734 231.846 50.2734 232.309C50.2734 232.764 50.1432 233.09 49.8828 233.285C49.6289 233.474 49.3262 233.568 48.9746 233.568C48.61 233.568 48.3008 233.474 48.0469 233.285C47.7995 233.09 47.6758 232.764 47.6758 232.309C47.6758 231.846 47.7995 231.521 48.0469 231.332C48.3008 231.143 48.61 231.049 48.9746 231.049ZM57.6367 234.984C59.0039 234.984 60.0358 235.287 60.7324 235.893C61.4355 236.498 61.7871 237.442 61.7871 238.725V246H60.1562L59.7168 244.467H59.6387C59.3327 244.857 59.0169 245.18 58.6914 245.434C58.3659 245.688 57.9883 245.876 57.5586 246C57.1354 246.13 56.6178 246.195 56.0059 246.195C55.3613 246.195 54.7852 246.078 54.2773 245.844C53.7695 245.603 53.3691 245.238 53.0762 244.75C52.7832 244.262 52.6367 243.643 52.6367 242.895C52.6367 241.781 53.0501 240.945 53.877 240.385C54.7103 239.825 55.9668 239.516 57.6465 239.457L59.5215 239.389V238.822C59.5215 238.074 59.3457 237.54 58.9941 237.221C58.6491 236.902 58.1608 236.742 57.5293 236.742C56.9889 236.742 56.4648 236.82 55.957 236.977C55.4492 237.133 54.9544 237.325 54.4727 237.553L53.7305 235.932C54.2578 235.652 54.8568 235.424 55.5273 235.248C56.2044 235.072 56.9076 234.984 57.6367 234.984ZM59.5117 240.834L58.1152 240.883C56.9694 240.922 56.1654 241.117 55.7031 241.469C55.2409 241.82 55.0098 242.302 55.0098 242.914C55.0098 243.448 55.1693 243.839 55.4883 244.086C55.8073 244.327 56.2272 244.447 56.748 244.447C57.5423 244.447 58.1999 244.223 58.7207 243.773C59.248 243.318 59.5117 242.65 59.5117 241.771V240.834ZM67.3047 246H65V230.805H67.3047V246ZM88.6914 238.842C88.6914 239.942 88.5514 240.945 88.2715 241.85C87.998 242.748 87.5846 243.523 87.0312 244.174C86.4779 244.818 85.7845 245.316 84.9512 245.668C84.1178 246.02 83.1413 246.195 82.0215 246.195C80.8822 246.195 79.8926 246.02 79.0527 245.668C78.2194 245.316 77.526 244.815 76.9727 244.164C76.4258 243.513 76.0156 242.735 75.7422 241.83C75.4688 240.925 75.332 239.923 75.332 238.822C75.332 237.351 75.5729 236.068 76.0547 234.975C76.543 233.874 77.2819 233.021 78.2715 232.416C79.2676 231.804 80.5241 231.498 82.041 231.498C83.5254 231.498 84.7591 231.801 85.7422 232.406C86.7253 233.012 87.4609 233.865 87.9492 234.965C88.444 236.059 88.6914 237.351 88.6914 238.842ZM77.793 238.842C77.793 239.942 77.9427 240.896 78.2422 241.703C78.5417 242.504 79.0007 243.122 79.6191 243.559C80.2441 243.988 81.0449 244.203 82.0215 244.203C83.0046 244.203 83.8053 243.988 84.4238 243.559C85.0423 243.122 85.498 242.504 85.791 241.703C86.084 240.896 86.2305 239.942 86.2305 238.842C86.2305 237.169 85.8952 235.86 85.2246 234.916C84.5605 233.965 83.4993 233.49 82.041 233.49C81.0645 233.49 80.2604 233.705 79.6289 234.135C79.0039 234.564 78.5417 235.18 78.2422 235.98C77.9427 236.775 77.793 237.729 77.793 238.842ZM100.605 246L99.209 242.035H93.75L92.3535 246H89.8828L95.1953 231.664H97.793L103.096 246H100.605ZM98.6035 240.023L97.2461 236.117C97.194 235.948 97.1191 235.71 97.0215 235.404C96.9238 235.092 96.8262 234.776 96.7285 234.457C96.6309 234.132 96.5495 233.858 96.4844 233.637C96.4193 233.904 96.3379 234.203 96.2402 234.535C96.1491 234.861 96.0579 235.167 95.9668 235.453C95.8822 235.74 95.8171 235.961 95.7715 236.117L94.4043 240.023H98.6035ZM113.223 242.113C113.223 242.96 113.014 243.689 112.598 244.301C112.188 244.913 111.595 245.382 110.82 245.707C110.052 246.033 109.134 246.195 108.066 246.195C107.546 246.195 107.048 246.166 106.572 246.107C106.097 246.049 105.648 245.964 105.225 245.854C104.808 245.736 104.427 245.596 104.082 245.434V243.227C104.661 243.48 105.309 243.712 106.025 243.92C106.742 244.122 107.471 244.223 108.213 244.223C108.818 244.223 109.32 244.145 109.717 243.988C110.12 243.826 110.42 243.598 110.615 243.305C110.811 243.005 110.908 242.657 110.908 242.26C110.908 241.837 110.794 241.479 110.566 241.186C110.339 240.893 109.993 240.626 109.531 240.385C109.076 240.137 108.503 239.874 107.812 239.594C107.344 239.405 106.895 239.19 106.465 238.949C106.042 238.708 105.664 238.425 105.332 238.1C105 237.774 104.736 237.39 104.541 236.947C104.352 236.498 104.258 235.971 104.258 235.365C104.258 234.558 104.45 233.868 104.834 233.295C105.225 232.722 105.771 232.283 106.475 231.977C107.184 231.671 108.011 231.518 108.955 231.518C109.704 231.518 110.407 231.596 111.064 231.752C111.729 231.908 112.38 232.13 113.018 232.416L112.275 234.301C111.689 234.06 111.12 233.868 110.566 233.725C110.02 233.581 109.46 233.51 108.887 233.51C108.392 233.51 107.972 233.585 107.627 233.734C107.282 233.884 107.018 234.096 106.836 234.369C106.66 234.636 106.572 234.955 106.572 235.326C106.572 235.743 106.673 236.094 106.875 236.381C107.083 236.661 107.402 236.918 107.832 237.152C108.268 237.387 108.828 237.647 109.512 237.934C110.299 238.259 110.967 238.601 111.514 238.959C112.067 239.317 112.49 239.747 112.783 240.248C113.076 240.743 113.223 241.365 113.223 242.113ZM115.977 246V231.723H118.32V246H115.977ZM130.332 242.113C130.332 242.96 130.124 243.689 129.707 244.301C129.297 244.913 128.704 245.382 127.93 245.707C127.161 246.033 126.243 246.195 125.176 246.195C124.655 246.195 124.157 246.166 123.682 246.107C123.206 246.049 122.757 245.964 122.334 245.854C121.917 245.736 121.536 245.596 121.191 245.434V243.227C121.771 243.48 122.419 243.712 123.135 243.92C123.851 244.122 124.58 244.223 125.322 244.223C125.928 244.223 126.429 244.145 126.826 243.988C127.23 243.826 127.529 243.598 127.725 243.305C127.92 243.005 128.018 242.657 128.018 242.26C128.018 241.837 127.904 241.479 127.676 241.186C127.448 240.893 127.103 240.626 126.641 240.385C126.185 240.137 125.612 239.874 124.922 239.594C124.453 239.405 124.004 239.19 123.574 238.949C123.151 238.708 122.773 238.425 122.441 238.1C122.109 237.774 121.846 237.39 121.65 236.947C121.462 236.498 121.367 235.971 121.367 235.365C121.367 234.558 121.559 233.868 121.943 233.295C122.334 232.722 122.881 232.283 123.584 231.977C124.294 231.671 125.12 231.518 126.064 231.518C126.813 231.518 127.516 231.596 128.174 231.752C128.838 231.908 129.489 232.13 130.127 232.416L129.385 234.301C128.799 234.06 128.229 233.868 127.676 233.725C127.129 233.581 126.569 233.51 125.996 233.51C125.501 233.51 125.081 233.585 124.736 233.734C124.391 233.884 124.128 234.096 123.945 234.369C123.77 234.636 123.682 234.955 123.682 235.326C123.682 235.743 123.783 236.094 123.984 236.381C124.193 236.661 124.512 236.918 124.941 237.152C125.378 237.387 125.938 237.647 126.621 237.934C127.409 238.259 128.076 238.601 128.623 238.959C129.176 239.317 129.6 239.747 129.893 240.248C130.186 240.743 130.332 241.365 130.332 242.113ZM147.129 246L145.732 242.035H140.273L138.877 246H136.406L141.719 231.664H144.316L149.619 246H147.129ZM145.127 240.023L143.77 236.117C143.717 235.948 143.643 235.71 143.545 235.404C143.447 235.092 143.35 234.776 143.252 234.457C143.154 234.132 143.073 233.858 143.008 233.637C142.943 233.904 142.861 234.203 142.764 234.535C142.673 234.861 142.581 235.167 142.49 235.453C142.406 235.74 142.34 235.961 142.295 236.117L140.928 240.023H145.127ZM156.816 234.984C158.099 234.984 159.128 235.453 159.902 236.391C160.684 237.328 161.074 238.721 161.074 240.57C161.074 241.794 160.892 242.826 160.527 243.666C160.169 244.499 159.665 245.131 159.014 245.561C158.369 245.984 157.617 246.195 156.758 246.195C156.211 246.195 155.736 246.124 155.332 245.98C154.928 245.837 154.583 245.652 154.297 245.424C154.01 245.189 153.77 244.936 153.574 244.662H153.438C153.47 244.923 153.499 245.212 153.525 245.531C153.558 245.844 153.574 246.13 153.574 246.391V250.795H151.27V235.189H153.145L153.467 236.684H153.574C153.776 236.378 154.02 236.094 154.307 235.834C154.6 235.574 154.951 235.368 155.361 235.219C155.778 235.062 156.263 234.984 156.816 234.984ZM156.201 236.859C155.57 236.859 155.062 236.986 154.678 237.24C154.3 237.488 154.023 237.862 153.848 238.363C153.678 238.865 153.587 239.493 153.574 240.248V240.57C153.574 241.371 153.656 242.051 153.818 242.611C153.988 243.165 154.264 243.588 154.648 243.881C155.039 244.167 155.566 244.311 156.23 244.311C156.79 244.311 157.253 244.158 157.617 243.852C157.988 243.546 158.265 243.109 158.447 242.543C158.63 241.977 158.721 241.309 158.721 240.541C158.721 239.376 158.512 238.471 158.096 237.826C157.686 237.182 157.054 236.859 156.201 236.859ZM169.277 234.984C170.56 234.984 171.589 235.453 172.363 236.391C173.145 237.328 173.535 238.721 173.535 240.57C173.535 241.794 173.353 242.826 172.988 243.666C172.63 244.499 172.126 245.131 171.475 245.561C170.83 245.984 170.078 246.195 169.219 246.195C168.672 246.195 168.197 246.124 167.793 245.98C167.389 245.837 167.044 245.652 166.758 245.424C166.471 245.189 166.23 244.936 166.035 244.662H165.898C165.931 244.923 165.96 245.212 165.986 245.531C166.019 245.844 166.035 246.13 166.035 246.391V250.795H163.73V235.189H165.605L165.928 236.684H166.035C166.237 236.378 166.481 236.094 166.768 235.834C167.061 235.574 167.412 235.368 167.822 235.219C168.239 235.062 168.724 234.984 169.277 234.984ZM168.662 236.859C168.031 236.859 167.523 236.986 167.139 237.24C166.761 237.488 166.484 237.862 166.309 238.363C166.139 238.865 166.048 239.493 166.035 240.248V240.57C166.035 241.371 166.117 242.051 166.279 242.611C166.449 243.165 166.725 243.588 167.109 243.881C167.5 244.167 168.027 244.311 168.691 244.311C169.251 244.311 169.714 244.158 170.078 243.852C170.449 243.546 170.726 243.109 170.908 242.543C171.09 241.977 171.182 241.309 171.182 240.541C171.182 239.376 170.973 238.471 170.557 237.826C170.146 237.182 169.515 236.859 168.662 236.859Z" fill="white"/>

</svg>
