<svg width="428" height="662" viewBox="0 0 428 662" fill="none" xmlns="http://www.w3.org/2000/svg">
    <defs>
        <linearGradient id="paint0_linear_1010_16408" x1="-187.094" y1="417.893" x2="510.399" y2="513.106" gradientUnits="userSpaceOnUse">
            <stop stop-color="#D19A08" stop-opacity="0.9"/>
            <stop offset="0.276042" stop-color="#FEDB7E" stop-opacity="0.92"/>
            <stop offset="0.5" stop-color="#EAC460"/>
            <stop offset="0.5001" stop-color="#E9C25D" stop-opacity="0.9"/>
            <stop offset="0.739583" stop-color="#D19A08" stop-opacity="0.8"/>
            <stop offset="1" stop-color="#D19A08"/>
        </linearGradient>
        <radialGradient id="paint1_radial_1010_16408" cx="0" cy="0" r="1" gradientUnits="userSpaceOnUse" gradientTransform="translate(166.786 427.895) rotate(78.3599) scale(81.1964 344.585)">
            <stop/>
            <stop offset="1" stop-opacity="0"/>
        </radialGradient>
        <linearGradient id="paint2_linear_1010_16408" x1="-187.094" y1="502.893" x2="510.399" y2="598.106" gradientUnits="userSpaceOnUse">
            <stop stop-color="#D19A08" stop-opacity="0.9"/>
            <stop offset="0.276042" stop-color="#FEDB7E" stop-opacity="0.92"/>
            <stop offset="0.5" stop-color="#EAC460"/>
            <stop offset="0.5001" stop-color="#E9C25D" stop-opacity="0.9"/>
            <stop offset="0.739583" stop-color="#D19A08" stop-opacity="0.8"/>
            <stop offset="1" stop-color="#D19A08"/>
        </linearGradient>
        <radialGradient id="paint3_radial_1010_16408" cx="0" cy="0" r="1" gradientUnits="userSpaceOnUse" gradientTransform="translate(166.786 512.895) rotate(78.3599) scale(81.1964 344.585)">
            <stop/>
            <stop offset="1" stop-opacity="0"/>
        </radialGradient>
        <linearGradient id="paint4_linear_1010_16408" x1="-187.094" y1="460.893" x2="510.399" y2="556.106" gradientUnits="userSpaceOnUse">
            <stop stop-color="#D19A08" stop-opacity="0.9"/>
            <stop offset="0.276042" stop-color="#FEDB7E" stop-opacity="0.92"/>
            <stop offset="0.5" stop-color="#EAC460"/>
            <stop offset="0.5001" stop-color="#E9C25D" stop-opacity="0.9"/>
            <stop offset="0.739583" stop-color="#D19A08" stop-opacity="0.8"/>
            <stop offset="1" stop-color="#D19A08"/>
        </linearGradient>
        <radialGradient id="paint5_radial_1010_16408" cx="0" cy="0" r="1" gradientUnits="userSpaceOnUse" gradientTransform="translate(166.786 470.895) rotate(78.3599) scale(81.1964 344.585)">
            <stop/>
            <stop offset="1" stop-opacity="0"/>
        </radialGradient>
        <linearGradient id="paint6_linear_1010_16408" x1="9.99998" y1="-11.0677" x2="219.099" y2="291.664" gradientUnits="userSpaceOnUse">
            <stop stop-color="#AEBA66"/>
            <stop offset="0.565625" stop-color="#CF9600"/>
        </linearGradient>
    </defs>
    <g opacity="0.78">
<path d="M519.56 432.526C519.56 432.526 473.21 456.878 410.043 451.353C369.482 447.806 199.502 173.77 119.716 136.02C39.9296 98.2697 -78.2852 238.384 -78.2842 376.019C-81.7842 438.02 -163.747 406.52 -163.747 531.227" stroke="url(#paint0_linear_1010_16408)" stroke-width="0.5"/>
<path d="M519.56 432.526C519.56 432.526 473.21 456.878 410.043 451.353C369.482 447.806 199.502 173.77 119.716 136.02C39.9296 98.2697 -78.2852 238.384 -78.2842 376.019C-81.7842 438.02 -163.747 406.52 -163.747 531.227" stroke="url(#paint1_radial_1010_16408)" stroke-opacity="0.8" stroke-width="0.5"/>
</g>
<g opacity="0.78">
<path d="M519.56 517.526C519.56 517.526 473.21 541.878 410.043 536.353C369.482 532.806 199.502 258.77 119.716 221.02C39.9296 183.27 -78.2852 323.384 -78.2842 461.019C-81.7842 523.02 -163.747 491.52 -163.747 616.227" stroke="url(#paint2_linear_1010_16408)" stroke-width="0.5"/>
<path d="M519.56 517.526C519.56 517.526 473.21 541.878 410.043 536.353C369.482 532.806 199.502 258.77 119.716 221.02C39.9296 183.27 -78.2852 323.384 -78.2842 461.019C-81.7842 523.02 -163.747 491.52 -163.747 616.227" stroke="url(#paint3_radial_1010_16408)" stroke-opacity="0.8" stroke-width="0.5"/>
</g>
<g opacity="0.78">
<path d="M519.56 475.526C519.56 475.526 473.21 499.878 410.043 494.353C369.482 490.806 199.502 216.77 119.716 179.02C39.9296 141.27 -78.2852 281.384 -78.2842 419.019C-81.7842 481.02 -163.747 449.52 -163.747 574.227" stroke="url(#paint4_linear_1010_16408)" stroke-width="0.5"/>
<path d="M519.56 475.526C519.56 475.526 473.21 499.878 410.043 494.353C369.482 490.806 199.502 216.77 119.716 179.02C39.9296 141.27 -78.2852 281.384 -78.2842 419.019C-81.7842 481.02 -163.747 449.52 -163.747 574.227" stroke="url(#paint5_radial_1010_16408)" stroke-opacity="0.8" stroke-width="0.5"/>
</g>
<path d="M59.58 22.363H63.935V70H55.828V40.453L41.021 61.625H37.738L22.931 40.654V70H14.824V22.363H19.179L39.48 51.039L59.58 22.363ZM101.956 51.843C101.956 52.915 101.934 53.6743 101.889 54.121H72.4759C72.9672 57.2477 74.2402 59.682 76.2949 61.424C78.3495 63.166 81.0072 64.037 84.2679 64.037C89.0472 64.037 92.7769 62.362 95.4569 59.012L100.616 63.3C96.9532 68.258 91.3252 70.737 83.7319 70.737C77.7465 70.737 73.0119 69.0173 69.5279 65.578C66.0885 62.094 64.3689 57.4487 64.3689 51.642C64.3689 45.9247 66.1109 41.324 69.5949 37.84C73.0789 34.356 77.6125 32.614 83.1959 32.614C89.2705 32.614 93.9159 34.3783 97.1319 37.907C100.348 41.391 101.956 46.0363 101.956 51.843ZM83.1959 39.247C80.4712 39.247 78.1485 40.0287 76.2279 41.592C74.3072 43.1107 73.0789 45.2993 72.5429 48.158H93.9829C93.7149 45.5227 92.6652 43.3787 90.8339 41.726C89.0472 40.0733 86.5012 39.247 83.1959 39.247ZM101.452 70V33.552H109.157V38.577C111.881 34.691 115.723 32.748 120.681 32.748C121.976 32.748 123.003 32.9043 123.763 33.217V41.659C122.155 41.0783 120.591 40.788 119.073 40.788C116.259 40.788 113.936 41.8153 112.105 43.87C110.273 45.88 109.358 48.7387 109.358 52.446V70H101.452ZM139.483 70.67C133.408 70.67 128.629 68.9727 125.145 65.578C121.706 62.1387 119.986 57.5157 119.986 51.709C119.986 46.0363 121.75 41.4803 125.279 38.041C128.852 34.557 133.632 32.815 139.617 32.815C142.922 32.815 145.915 33.4403 148.595 34.691C151.32 35.9417 153.508 37.6613 155.161 39.85L149.667 44.808C148.64 43.3787 147.255 42.2173 145.513 41.324C143.771 40.4307 141.895 39.984 139.885 39.984C136.312 39.984 133.453 41.056 131.309 43.2C129.21 45.2993 128.16 48.1133 128.16 51.642C128.16 55.3047 129.21 58.208 131.309 60.352C133.408 62.496 136.222 63.568 139.751 63.568C144.084 63.568 147.478 61.9377 149.935 58.677L155.429 63.635C153.732 65.8237 151.498 67.5433 148.729 68.794C146.004 70.0447 142.922 70.67 139.483 70.67ZM154.97 70V19.281H162.876V37.237C166.271 34.289 170.246 32.815 174.802 32.815C179.448 32.815 182.954 33.9987 185.321 36.366C187.733 38.7333 188.939 42.731 188.939 48.359V70H180.966V49.967C180.966 46.1703 180.207 43.535 178.688 42.061C177.214 40.587 175.137 39.85 172.457 39.85C168.884 39.85 165.69 41.3017 162.876 44.205V70H154.97ZM206.249 70.737C200.845 70.737 196.512 69.0173 193.251 65.578C190.035 62.1387 188.427 57.5157 188.427 51.709C188.427 45.9023 190.035 41.3017 193.251 37.907C196.467 34.4677 200.688 32.748 205.914 32.748C210.917 32.748 214.825 34.1773 217.639 37.036V33.552H225.545V70H217.773V66.181C215.183 69.2183 211.341 70.737 206.249 70.737ZM207.79 63.702C209.845 63.702 211.766 63.2553 213.552 62.362C215.339 61.4687 216.746 60.1287 217.773 58.342V45.009C216.701 43.3563 215.227 42.0833 213.351 41.19C211.475 40.252 209.532 39.783 207.522 39.783C204.262 39.783 201.626 40.8327 199.616 42.932C197.651 45.0313 196.668 47.9347 196.668 51.642C196.668 55.394 197.673 58.342 199.683 60.486C201.693 62.63 204.396 63.702 207.79 63.702ZM227.669 70V33.552H235.374V37.237C238.858 34.289 242.878 32.815 247.434 32.815C252.08 32.815 255.586 33.9987 257.953 36.366C260.365 38.7333 261.571 42.731 261.571 48.359V70H253.665V49.967C253.665 46.1703 252.906 43.535 251.387 42.061C249.913 40.587 247.836 39.85 245.156 39.85C241.583 39.85 238.389 41.3017 235.575 44.205V70H227.669ZM278.878 70.737C273.474 70.737 269.141 69.0173 265.88 65.578C262.664 62.1387 261.056 57.5157 261.056 51.709C261.056 45.9023 262.664 41.3017 265.88 37.907C269.096 34.4677 273.317 32.748 278.543 32.748C283.546 32.748 287.454 34.1773 290.268 37.036V19.281H298.174V70H290.402V66.181C287.812 69.2183 283.97 70.737 278.878 70.737ZM280.419 63.702C282.474 63.702 284.395 63.2553 286.181 62.362C287.968 61.4687 289.375 60.1287 290.402 58.342V45.009C289.33 43.3563 287.856 42.0833 285.98 41.19C284.104 40.252 282.161 39.783 280.151 39.783C276.891 39.783 274.255 40.8327 272.245 42.932C270.28 45.0313 269.297 47.9347 269.297 51.642C269.297 55.394 270.302 58.342 272.312 60.486C274.322 62.63 277.025 63.702 280.419 63.702ZM308.003 27.388C307.021 28.3707 305.815 28.862 304.385 28.862C302.956 28.862 301.728 28.3707 300.7 27.388C299.718 26.4053 299.226 25.1993 299.226 23.77C299.226 22.3853 299.718 21.2017 300.7 20.219C301.728 19.2363 302.956 18.745 304.385 18.745C305.815 18.745 307.021 19.2363 308.003 20.219C308.986 21.2017 309.477 22.3853 309.477 23.77C309.477 25.1993 308.986 26.4053 308.003 27.388ZM300.298 70V33.552H308.338V70H300.298ZM323.902 70.871C318.229 70.871 313.115 69.7543 308.559 67.521L311.172 61.156C314.968 63.3893 319.145 64.506 323.701 64.506C328.435 64.506 330.803 62.965 330.803 59.883C330.803 58.5877 330.177 57.605 328.927 56.935C327.676 56.265 325.443 55.5727 322.227 54.858C317.715 53.92 314.388 52.6247 312.244 50.972C310.144 49.2747 309.095 46.8403 309.095 43.669C309.095 40.1403 310.368 37.4603 312.914 35.629C315.504 33.753 318.988 32.815 323.366 32.815C327.877 32.815 332.545 33.7753 337.369 35.696L334.689 42.061C331.115 40.2297 327.296 39.314 323.232 39.314C319.122 39.314 317.068 40.587 317.068 43.133C317.068 44.473 317.648 45.478 318.81 46.148C319.971 46.818 322.204 47.5327 325.51 48.292C330.155 49.364 333.55 50.704 335.694 52.312C337.882 53.92 338.977 56.2203 338.977 59.213C338.977 63.233 337.726 66.181 335.225 68.057C332.723 69.933 328.949 70.871 323.902 70.871ZM374.676 51.843C374.676 52.915 374.653 53.6743 374.609 54.121H345.196C345.687 57.2477 346.96 59.682 349.015 61.424C351.069 63.166 353.727 64.037 356.988 64.037C361.767 64.037 365.497 62.362 368.177 59.012L373.336 63.3C369.673 68.258 364.045 70.737 356.452 70.737C350.466 70.737 345.732 69.0173 342.248 65.578C338.808 62.094 337.089 57.4487 337.089 51.642C337.089 45.9247 338.831 41.324 342.315 37.84C345.799 34.356 350.332 32.614 355.916 32.614C361.99 32.614 366.636 34.3783 369.852 37.907C373.068 41.391 374.676 46.0363 374.676 51.843ZM355.916 39.247C353.191 39.247 350.868 40.0287 348.948 41.592C347.027 43.1107 345.799 45.2993 345.263 48.158H366.703C366.435 45.5227 365.385 43.3787 363.554 41.726C361.767 40.0733 359.221 39.247 355.916 39.247Z" fill="url(#paint6_linear_1010_16408)"/>
</svg>
