<svg width="388" height="218" viewBox="0 0 388 218" fill="none" xmlns="http://www.w3.org/2000/svg">
    <defs>
        <filter id="filter0_bi_632_12988" x="-45.1977" y="-45.1977" width="478.395" height="308.395" filterUnits="userSpaceOnUse" color-interpolation-filters="sRGB">
            <feFlood flood-opacity="0" result="BackgroundImageFix"/>
            <feGaussianBlur in="BackgroundImageFix" stdDeviation="22.5989"/>
            <feComposite in2="SourceAlpha" operator="in" result="effect1_backgroundBlur_632_12988"/>
            <feBlend mode="normal" in="SourceGraphic" in2="effect1_backgroundBlur_632_12988" result="shape"/>
            <feColorMatrix in="SourceAlpha" type="matrix" values="0 0 0 0 0 0 0 0 0 0 0 0 0 0 0 0 0 0 127 0" result="hardAlpha"/>
            <feOffset dx="3.61582" dy="-3.61582"/>
            <feGaussianBlur stdDeviation="4.0678"/>
            <feComposite in2="hardAlpha" operator="arithmetic" k2="-1" k3="1"/>
            <feColorMatrix type="matrix" values="0 0 0 0 1 0 0 0 0 0.796 0 0 0 0 0.4 0 0 0 0.03 0"/>
            <feBlend mode="normal" in2="shape" result="effect2_innerShadow_632_12988"/>
        </filter>
        <filter id="filter1_i_632_12988" x="102.5" y="-4" width="365.393" height="233.5" filterUnits="userSpaceOnUse" color-interpolation-filters="sRGB">
            <feFlood flood-opacity="0" result="BackgroundImageFix"/>
            <feBlend mode="normal" in="SourceGraphic" in2="BackgroundImageFix" result="shape"/>
            <feColorMatrix in="SourceAlpha" type="matrix" values="0 0 0 0 0 0 0 0 0 0 0 0 0 0 0 0 0 0 127 0" result="hardAlpha"/>
            <feOffset dx="6" dy="2"/>
            <feGaussianBlur stdDeviation="13.5"/>
            <feComposite in2="hardAlpha" operator="arithmetic" k2="-1" k3="1"/>
            <feColorMatrix type="matrix" values="0 0 0 0 0 0 0 0 0 0 0 0 0 0 0 0 0 0 0.33 0"/>
            <feBlend mode="normal" in2="shape" result="effect1_innerShadow_632_12988"/>
        </filter>
        <filter id="filter2_i_632_12988" x="83" y="-1.00195" width="354.495" height="230.502" filterUnits="userSpaceOnUse" color-interpolation-filters="sRGB">
            <feFlood flood-opacity="0" result="BackgroundImageFix"/>
            <feBlend mode="normal" in="SourceGraphic" in2="BackgroundImageFix" result="shape"/>
            <feColorMatrix in="SourceAlpha" type="matrix" values="0 0 0 0 0 0 0 0 0 0 0 0 0 0 0 0 0 0 127 0" result="hardAlpha"/>
            <feOffset dx="6" dy="2"/>
            <feGaussianBlur stdDeviation="13.5"/>
            <feComposite in2="hardAlpha" operator="arithmetic" k2="-1" k3="1"/>
            <feColorMatrix type="matrix" values="0 0 0 0 0 0 0 0 0 0 0 0 0 0 0 0 0 0 0.33 0"/>
            <feBlend mode="normal" in2="shape" result="effect1_innerShadow_632_12988"/>
        </filter>
        <radialGradient id="paint0_radial_632_12988" cx="0" cy="0" r="1" gradientUnits="userSpaceOnUse" gradientTransform="translate(371.5 218) rotate(-145.065) scale(453.158 436.621)">
            <stop stop-color="#FFE100"/>
            <stop offset="1" stop-color="#5A5A5A" stop-opacity="0"/>
        </radialGradient>
        <radialGradient id="paint1_radial_632_12988" cx="0" cy="0" r="1" gradientUnits="userSpaceOnUse" gradientTransform="translate(83 99.5) rotate(-110.921) scale(232.445 315.868)">
            <stop stop-color="#FFA800"/>
            <stop offset="0.374705" stop-color="#FFA800" stop-opacity="0.729462"/>
            <stop offset="1" stop-color="#FFA800" stop-opacity="0"/>
        </radialGradient>
        <radialGradient id="paint2_radial_632_12988" cx="0" cy="0" r="1" gradientUnits="userSpaceOnUse" gradientTransform="translate(311.5 79) rotate(148.671) scale(175.018 147.947)">
            <stop/>
            <stop offset="1" stop-opacity="0"/>
        </radialGradient>
        <clipPath id="clip0_632_12988">
            <rect width="388" height="218" rx="18" fill="white"/>
        </clipPath>
    </defs>
<g clip-path="url(#clip0_632_12988)">
<g filter="url(#filter0_bi_632_12988)">
<mask id="path-2-inside-1_632_12988" fill="white">
<path d="M0 18.0791C0 8.09429 8.09429 0 18.0791 0H369.921C379.906 0 388 8.09429 388 18.0791V199.92C388 209.905 379.905 218 369.92 218H18.08C8.0947 218 0 209.905 0 199.92V18.0791Z"/>
</mask>
<path d="M0 18.0791C0 8.09429 8.09429 0 18.0791 0H369.921C379.906 0 388 8.09429 388 18.0791V199.92C388 209.905 379.905 218 369.92 218H18.08C8.0947 218 0 209.905 0 199.92V18.0791Z" fill="url(#paint0_radial_632_12988)" fill-opacity="0.36"/>
<path d="M0 18.0791C0 8.09429 8.09429 0 18.0791 0H369.921C379.906 0 388 8.09429 388 18.0791V199.92C388 209.905 379.905 218 369.92 218H18.08C8.0947 218 0 209.905 0 199.92V18.0791Z" fill="url(#paint1_radial_632_12988)" fill-opacity="0.29"/>
<path d="M0 18.0791C0 8.09429 8.09429 0 18.0791 0H369.921C379.906 0 388 8.09429 388 18.0791V199.92C388 209.905 379.905 218 369.92 218H18.08C8.0947 218 0 209.905 0 199.92V18.0791Z" fill="url(#paint2_radial_632_12988)" fill-opacity="0.34"/>
<path d="M0 0H388H0ZM388.181 199.92C388.181 210.005 380.005 218.181 369.92 218.181H18.2608C8.17564 218.181 0 210.005 0 199.92C0 209.805 8.09469 217.819 18.08 217.819H369.92C379.805 217.819 387.819 209.805 387.819 199.92H388.181ZM0 218V0V218ZM369.921 0C380.006 0 388.181 8.17523 388.181 18.2599V199.92C388.181 210.005 380.005 218.181 369.92 218.181L369.92 217.819C379.805 217.819 387.819 209.805 387.819 199.92V18.0791C387.819 8.09429 379.806 0 369.921 0Z" fill="white" mask="url(#path-2-inside-1_632_12988)"/>
</g>
<g filter="url(#filter1_i_632_12988)">
<path d="M232 128C245 64 281.5 9 351.5 -4C351.5 -4 518.059 -1.37219 442 8.5L433 227.5H210L102.5 221C171.968 208.365 219 192 232 128Z" fill="black" fill-opacity="0.02"/>
</g>
<g filter="url(#filter2_i_632_12988)">
<path d="M200.5 128C213.5 63.9999 261.5 11.9999 331.5 -1.00012C331.5 -1.00012 486.559 -1.37231 410.5 8.49988L414.5 221L178.5 227.5L83 224C152.468 211.365 187.5 192 200.5 128Z" fill="black" fill-opacity="0.01"/>
</g>
</g>
</svg>
